# Blender 5.1.1
# www.blender.org
mtllib ball.mtl
o Sphere
v 0.000000 1.437650 0.000000
v 0.000000 0.382683 -0.923880
v 0.000000 0.000000 -1.000000
v 0.000000 -0.382683 -0.923880
v 0.000000 -0.923880 -0.382683
v 0.000000 -1.363737 0.000000
v 0.146447 0.923880 -0.353553
v 0.270598 0.707107 -0.653281
v 0.353553 0.382683 -0.853553
v 0.382683 0.000000 -1.503109
v 0.353553 -0.382683 -0.853553
v 0.270598 -0.707107 -0.653281
v 0.146447 -0.923880 -0.353553
v 0.270598 0.923880 -0.270598
v 0.500000 0.707107 -0.500000
v 0.653282 0.382683 -0.653281
v 0.707107 0.000000 -0.707107
v 0.653282 -0.382683 -0.653281
v 0.500000 -0.707107 -0.500000
v 0.270598 -0.923880 -0.270598
v 0.353553 0.923880 -0.146447
v 0.653281 0.707107 -0.270598
v 0.853553 0.382683 -0.353553
v 0.923880 0.000000 -0.382683
v 0.853553 -0.382683 -0.353553
v 0.653281 -0.707107 -0.270598
v 0.353553 -0.923880 -0.146447
v 0.382683 0.923880 0.000000
v 0.707107 0.707107 0.000000
v 0.923880 0.382683 0.000000
v 1.000000 0.000000 0.000000
v 1.344249 -0.382683 0.000000
v 0.707107 -0.707107 0.000000
v 0.382683 -0.923880 0.000000
v 0.353553 0.923880 0.146447
v 0.653281 0.707107 0.270598
v 0.853553 0.382683 0.353554
v 0.923879 0.000000 0.382684
v 0.853553 -0.382683 0.353554
v 0.653281 -0.707107 0.270598
v 0.353553 -0.923880 0.146447
v 0.270598 0.923880 0.270598
v 0.500000 0.707107 0.500000
v 0.653281 0.382683 0.653282
v 0.707107 0.000000 0.707107
v 0.653281 -0.382683 0.653282
v 0.500000 -0.707107 0.500000
v 0.270598 -0.923880 0.270598
v 0.146447 0.923880 0.353553
v 0.270598 0.707107 0.653281
v 0.353553 0.382683 0.853553
v 0.382683 0.000000 0.923880
v 0.353553 -0.382683 0.853553
v 0.270598 -0.707107 0.653281
v 0.146447 -0.923880 0.353553
v -0.000000 0.923880 0.382683
v -0.000000 0.707107 0.707107
v -0.000000 0.382683 1.592966
v -0.000000 0.000000 1.000000
v -0.000000 -0.382683 0.923879
v -0.000000 -0.707107 0.707107
v -0.000000 -0.923880 0.382683
v -0.146447 0.923880 0.353553
v -0.270598 0.707107 0.653281
v -0.353554 0.382683 0.853553
v -0.382684 0.000000 0.923879
v -0.353554 -0.382683 0.853553
v -0.270598 -0.707107 0.653281
v -0.146447 -0.923880 0.353553
v -0.270598 0.923880 0.270598
v -0.500000 0.707107 0.500000
v -0.653282 0.382683 0.653281
v -0.707107 0.000000 0.707106
v -0.653282 -0.382683 0.653281
v -0.500000 -0.707107 0.500000
v -0.270598 -0.923880 0.270598
v -0.353553 0.923880 0.146446
v -0.653281 0.707107 0.270598
v -0.853553 0.382683 0.353553
v -0.923880 0.000000 0.382683
v -0.853553 -0.382683 0.353553
v -0.653281 -0.707107 0.270598
v -0.353553 -0.923880 0.146446
v -0.382683 0.923880 -0.000000
v -0.707107 0.707107 -0.000000
v -1.498094 0.382683 -0.000000
v -1.000000 0.000000 -0.000001
v -0.923879 -0.382683 -0.000000
v -0.707107 -0.707107 -0.000000
v -0.382683 -0.923880 -0.000000
v -0.353553 0.923880 -0.146447
v -0.653281 0.707107 -0.270598
v -0.853553 0.382683 -0.353554
v -0.923879 0.000000 -0.382684
v -0.853553 -0.382683 -0.353554
v -0.653281 -0.707107 -0.270598
v -0.353553 -0.923880 -0.146447
v -0.270598 0.923880 -0.270598
v -0.500000 0.707107 -0.500000
v -0.653281 0.382683 -0.653282
v -0.707106 0.000000 -0.707107
v -0.653281 -0.382683 -0.653282
v -0.500000 -0.707107 -0.500000
v -0.270598 -0.923880 -0.270598
v -0.146446 0.923880 -0.353554
v -0.270598 0.707107 -0.653281
v -0.353553 0.382683 -0.853553
v -0.382683 0.000000 -0.923880
v -0.353553 -0.382683 -0.853553
v -0.270598 -0.707107 -0.653281
v -0.146446 -0.923880 -0.353554
v 0.000000 0.923880 -0.382683
v 0.000000 0.707107 -0.707107
v 0.000000 -0.707107 -0.707107
vn 0.1632 -0.5481 -0.8203
vn -0.5722 0.6951 -0.4352
vn 0.1098 0.8264 -0.5522
vn 0.1098 -0.8264 -0.5522
vn 0.1915 -0.1915 -0.9626
vn 0.1632 0.5481 -0.8203
vn 0.1575 0.5899 -0.7920
vn 0.1484 -0.6491 -0.7461
vn 0.3128 -0.8264 -0.4681
vn 0.5453 -0.1915 -0.8161
vn 0.4647 0.5481 -0.6954
vn 0.4486 0.5899 -0.6714
vn 0.4226 -0.6491 -0.6325
vn 0.4647 -0.5481 -0.6954
vn 0.7547 0.5795 -0.3076
vn 0.3128 0.8264 -0.4681
vn 0.6954 0.5481 -0.4647
vn 0.6714 0.5899 -0.4486
vn 0.6325 -0.6491 -0.4226
vn 0.6954 -0.5481 -0.4647
vn 0.8161 0.1915 -0.5453
vn 0.4681 0.8264 -0.3128
vn 0.4681 -0.8264 -0.3128
vn 0.8161 -0.1915 -0.5453
vn 0.7461 -0.6491 -0.1484
vn 0.8203 -0.5481 -0.1632
vn 0.9626 0.1915 -0.1915
vn 0.5522 0.8264 -0.1098
vn 0.5522 -0.8264 -0.1098
vn 0.5174 0.4654 -0.7181
vn 0.8203 0.5481 -0.1632
vn 0.7920 0.5899 -0.1575
vn 0.5522 0.8264 0.1098
vn 0.5522 -0.8264 0.1098
vn 0.5174 0.4654 0.7181
vn 0.8203 0.5481 0.1632
vn 0.7920 0.5899 0.1575
vn 0.7461 -0.6491 0.1484
vn 0.8203 -0.5481 0.1632
vn 0.9626 0.1915 0.1915
vn 0.4681 -0.8264 0.3128
vn 0.8161 -0.1915 0.5453
vn 0.6954 0.5481 0.4647
vn 0.6714 0.5899 0.4486
vn 0.6325 -0.6491 0.4226
vn 0.6954 -0.5481 0.4647
vn 0.8161 0.1915 0.5453
vn 0.4681 0.8264 0.3128
vn 0.4486 0.5899 0.6714
vn 0.4226 -0.6491 0.6325
vn 0.4647 -0.5481 0.6954
vn 0.5453 0.1915 0.8161
vn 0.3128 0.8264 0.4681
vn 0.3128 -0.8264 0.4681
vn 0.5453 -0.1915 0.8161
vn 0.4647 0.5481 0.6954
vn 0.1632 -0.5481 0.8203
vn 0.1915 0.1915 0.9626
vn 0.1098 0.8264 0.5522
vn 0.1098 -0.8264 0.5522
vn 0.1915 -0.1915 0.9626
vn 0.5839 0.7623 0.2792
vn 0.1575 0.5899 0.7920
vn 0.1484 -0.6491 0.7461
vn -0.1098 -0.8264 0.5522
vn -0.1915 -0.1915 0.9626
vn -0.5839 0.7623 0.2792
vn -0.1575 0.5899 0.7920
vn -0.1484 -0.6491 0.7461
vn -0.1632 -0.5481 0.8203
vn -0.1915 0.1915 0.9626
vn -0.1098 0.8264 0.5522
vn -0.5453 -0.1915 0.8161
vn -0.4647 0.5481 0.6954
vn -0.4486 0.5899 0.6714
vn -0.4226 -0.6491 0.6325
vn -0.4647 -0.5481 0.6954
vn -0.5453 0.1915 0.8161
vn -0.3128 0.8264 0.4681
vn -0.3128 -0.8264 0.4681
vn -0.6325 -0.6491 0.4226
vn -0.6954 -0.5481 0.4647
vn -0.8161 0.1915 0.5453
vn -0.4681 0.8264 0.3128
vn -0.4681 -0.8264 0.3128
vn -0.8161 -0.1915 0.5453
vn -0.6954 0.5481 0.4647
vn -0.6714 0.5899 0.4486
vn -0.9626 0.1915 0.1915
vn -0.5522 0.8264 0.1098
vn -0.5522 -0.8264 0.1098
vn -0.9626 -0.1915 0.1915
vn -0.3121 0.7609 0.5689
vn -0.7920 0.5899 0.1575
vn -0.7461 -0.6491 0.1484
vn -0.8203 -0.5481 0.1632
vn -0.5522 -0.8264 -0.1098
vn -0.9626 -0.1915 -0.1915
vn -0.3121 0.7609 -0.5689
vn -0.7920 0.5899 -0.1575
vn -0.7461 -0.6491 -0.1484
vn -0.8203 -0.5481 -0.1632
vn -0.9626 0.1915 -0.1915
vn -0.5522 0.8264 -0.1098
vn -0.6954 0.5481 -0.4647
vn -0.6714 0.5899 -0.4486
vn -0.6325 -0.6491 -0.4226
vn -0.6954 -0.5481 -0.4647
vn -0.8161 0.1915 -0.5453
vn -0.4681 0.8264 -0.3128
vn -0.4681 -0.8264 -0.3128
vn -0.8161 -0.1915 -0.5453
vn -0.4226 -0.6491 -0.6325
vn -0.4647 -0.5481 -0.6954
vn -0.5453 0.1915 -0.8161
vn -0.3128 0.8264 -0.4681
vn -0.3128 -0.8264 -0.4681
vn -0.5453 -0.1915 -0.8161
vn -0.4647 0.5481 -0.6954
vn -0.4486 0.5899 -0.6714
vn -0.1098 0.8264 -0.5522
vn -0.1098 -0.8264 -0.5522
vn -0.1915 -0.1915 -0.9626
vn -0.1632 0.5481 -0.8203
vn -0.1575 0.5899 -0.7920
vn -0.1484 -0.6491 -0.7461
vn -0.1632 -0.5481 -0.8203
vn -0.1915 0.1915 -0.9626
vn 0.1915 0.1915 -0.9626
vn -0.5722 -0.6951 -0.4352
vn 0.7547 -0.5795 -0.3076
vn 0.5453 0.1915 -0.8161
vn 0.3840 -0.7541 -0.5329
vn 0.9626 -0.1915 -0.1915
vn 0.9626 -0.1915 0.1915
vn 0.3840 -0.7541 0.5329
vn 0.7500 -0.5557 0.3586
vn 0.1632 0.5481 0.8203
vn -0.1632 0.5481 0.8203
vn -0.7500 -0.5557 0.3586
vn -0.4077 -0.5306 0.7432
vn -0.8203 0.5481 0.1632
vn -0.8203 0.5481 -0.1632
vn -0.4077 -0.5306 -0.7432
vt 0.750000 0.250000
vt 0.687500 0.375000
vt 0.687500 0.250000
vt 0.750000 0.500000
vt 0.687500 0.625000
vt 0.687500 0.500000
vt 0.750000 0.750000
vt 0.687500 0.875000
vt 0.687500 0.750000
vt 0.687500 0.125000
vt 0.750000 0.125000
vt 0.750000 0.375000
vt 0.750000 0.625000
vt 0.750000 0.875000
vt 0.718750 1.000000
vt 0.718750 0.000000
vt 0.625000 0.125000
vt 0.625000 0.500000
vt 0.625000 0.375000
vt 0.625000 0.625000
vt 0.656250 1.000000
vt 0.625000 0.875000
vt 0.656250 0.000000
vt 0.625000 0.250000
vt 0.625000 0.750000
vt 0.562500 0.625000
vt 0.593750 1.000000
vt 0.562500 0.875000
vt 0.593750 0.000000
vt 0.562500 0.125000
vt 0.562500 0.375000
vt 0.562500 0.250000
vt 0.562500 0.500000
vt 0.562500 0.750000
vt 0.531250 0.000000
vt 0.500000 0.125000
vt 0.500000 0.250000
vt 0.500000 0.500000
vt 0.500000 0.750000
vt 0.500000 0.375000
vt 0.500000 0.625000
vt 0.531250 1.000000
vt 0.500000 0.875000
vt 0.437500 0.875000
vt 0.437500 0.750000
vt 0.437500 0.250000
vt 0.437500 0.125000
vt 0.437500 0.375000
vt 0.437500 0.625000
vt 0.468750 1.000000
vt 0.468750 0.000000
vt 0.437500 0.500000
vt 0.375000 0.250000
vt 0.375000 0.125000
vt 0.375000 0.375000
vt 0.375000 0.625000
vt 0.406250 1.000000
vt 0.375000 0.875000
vt 0.406250 0.000000
vt 0.375000 0.500000
vt 0.375000 0.750000
vt 0.343750 1.000000
vt 0.312500 0.875000
vt 0.343750 0.000000
vt 0.312500 0.125000
vt 0.312500 0.375000
vt 0.312500 0.250000
vt 0.312500 0.500000
vt 0.312500 0.750000
vt 0.312500 0.625000
vt 0.250000 0.250000
vt 0.250000 0.500000
vt 0.250000 0.750000
vt 0.250000 0.125000
vt 0.250000 0.375000
vt 0.250000 0.625000
vt 0.281250 1.000000
vt 0.250000 0.875000
vt 0.281250 0.000000
vt 0.187500 0.125000
vt 0.187500 0.375000
vt 0.187500 0.625000
vt 0.218750 1.000000
vt 0.187500 0.875000
vt 0.218750 0.000000
vt 0.187500 0.250000
vt 0.187500 0.500000
vt 0.187500 0.750000
vt 0.125000 0.375000
vt 0.125000 0.625000
vt 0.156250 1.000000
vt 0.125000 0.875000
vt 0.156250 0.000000
vt 0.125000 0.125000
vt 0.125000 0.250000
vt 0.125000 0.500000
vt 0.125000 0.750000
vt 0.093750 0.000000
vt 0.062500 0.125000
vt 0.062500 0.375000
vt 0.062500 0.250000
vt 0.062500 0.625000
vt 0.062500 0.500000
vt 0.062500 0.750000
vt 0.093750 1.000000
vt 0.062500 0.875000
vt 0.000000 0.500000
vt 0.000000 0.875000
vt 0.000000 0.750000
vt 0.000000 0.125000
vt 0.000000 0.375000
vt 0.000000 0.625000
vt 0.031250 1.000000
vt 0.031250 0.000000
vt 0.000000 0.250000
vt 1.000000 0.250000
vt 0.937500 0.125000
vt 1.000000 0.125000
vt 1.000000 0.500000
vt 0.937500 0.375000
vt 1.000000 0.375000
vt 1.000000 0.750000
vt 0.937500 0.625000
vt 1.000000 0.625000
vt 1.000000 0.875000
vt 0.968750 1.000000
vt 0.937500 0.875000
vt 0.968750 0.000000
vt 0.937500 0.250000
vt 0.937500 0.500000
vt 0.937500 0.750000
vt 0.875000 0.625000
vt 0.906250 1.000000
vt 0.875000 0.875000
vt 0.906250 0.000000
vt 0.875000 0.125000
vt 0.875000 0.375000
vt 0.875000 0.250000
vt 0.875000 0.500000
vt 0.875000 0.750000
vt 0.843750 0.000000
vt 0.812500 0.125000
vt 0.812500 0.375000
vt 0.812500 0.250000
vt 0.812500 0.625000
vt 0.812500 0.500000
vt 0.812500 0.750000
vt 0.843750 1.000000
vt 0.812500 0.875000
vt 0.781250 1.000000
vt 0.781250 0.000000
s 0
f 114/1/1 11/2/1 12/3/1
f 3/4/2 9/5/2 10/6/2
f 113/7/3 7/8/3 8/9/3
f 114/1/4 13/10/4 5/11/4
f 3/4/5 11/2/5 4/12/5
f 113/7/6 9/5/6 2/13/6
f 112/14/7 1/15/7 7/8/7
f 6/16/8 5/11/8 13/10/8
f 12/3/9 20/17/9 13/10/9
f 11/2/10 17/18/10 18/19/10
f 8/9/11 16/20/11 9/5/11
f 7/8/12 1/21/12 14/22/12
f 6/23/13 13/10/13 20/17/13
f 11/2/14 19/24/14 12/3/14
f 9/5/15 17/18/15 10/6/15
f 7/8/16 15/25/16 8/9/16
f 15/25/17 23/26/17 16/20/17
f 14/22/18 1/27/18 21/28/18
f 6/29/19 20/17/19 27/30/19
f 19/24/20 25/31/20 26/32/20
f 17/18/21 23/26/21 24/33/21
f 14/22/22 22/34/22 15/25/22
f 19/24/23 27/30/23 20/17/23
f 17/18/24 25/31/24 18/19/24
f 6/35/25 27/30/25 34/36/25
f 25/31/26 33/37/26 26/32/26
f 23/26/27 31/38/27 24/33/27
f 21/28/28 29/39/28 22/34/28
f 26/32/29 34/36/29 27/30/29
f 25/31/30 31/38/30 32/40/30
f 23/26/31 29/39/31 30/41/31
f 21/28/32 1/42/32 28/43/32
f 29/39/33 35/44/33 36/45/33
f 34/36/34 40/46/34 41/47/34
f 31/38/35 39/48/35 32/40/35
f 29/39/36 37/49/36 30/41/36
f 28/43/37 1/50/37 35/44/37
f 6/51/38 34/36/38 41/47/38
f 33/37/39 39/48/39 40/46/39
f 30/41/40 38/52/40 31/38/40
f 41/47/41 47/53/41 48/54/41
f 38/52/42 46/55/42 39/48/42
f 36/45/43 44/56/43 37/49/43
f 35/44/44 1/57/44 42/58/44
f 6/59/45 41/47/45 48/54/45
f 39/48/46 47/53/46 40/46/46
f 38/52/47 44/56/47 45/60/47
f 36/45/48 42/58/48 43/61/48
f 42/58/49 1/62/49 49/63/49
f 6/64/50 48/54/50 55/65/50
f 47/53/51 53/66/51 54/67/51
f 44/56/52 52/68/52 45/60/52
f 42/58/53 50/69/53 43/61/53
f 47/53/54 55/65/54 48/54/54
f 46/55/55 52/68/55 53/66/55
f 43/61/56 51/70/56 44/56/56
f 53/66/57 61/71/57 54/67/57
f 51/70/58 59/72/58 52/68/58
f 49/63/59 57/73/59 50/69/59
f 55/65/60 61/71/60 62/74/60
f 52/68/61 60/75/61 53/66/61
f 51/70/62 57/73/62 58/76/62
f 49/63/63 1/77/63 56/78/63
f 6/79/64 55/65/64 62/74/64
f 61/71/65 69/80/65 62/74/65
f 59/72/66 67/81/66 60/75/66
f 57/73/67 65/82/67 58/76/67
f 56/78/68 1/83/68 63/84/68
f 6/85/69 62/74/69 69/80/69
f 61/71/70 67/81/70 68/86/70
f 59/72/71 65/82/71 66/87/71
f 56/78/72 64/88/72 57/73/72
f 66/87/73 74/89/73 67/81/73
f 64/88/74 72/90/74 65/82/74
f 63/84/75 1/91/75 70/92/75
f 6/93/76 69/80/76 76/94/76
f 68/86/77 74/89/77 75/95/77
f 66/87/78 72/90/78 73/96/78
f 63/84/79 71/97/79 64/88/79
f 69/80/80 75/95/80 76/94/80
f 6/98/81 76/94/81 83/99/81
f 75/95/82 81/100/82 82/101/82
f 73/96/83 79/102/83 80/103/83
f 70/92/84 78/104/84 71/97/84
f 75/95/85 83/99/85 76/94/85
f 73/96/86 81/100/86 74/89/86
f 71/97/87 79/102/87 72/90/87
f 70/92/88 1/105/88 77/106/88
f 79/102/89 87/107/89 80/103/89
f 78/104/90 84/108/90 85/109/90
f 82/101/91 90/110/91 83/99/91
f 80/103/92 88/111/92 81/100/92
f 79/102/93 85/109/93 86/112/93
f 77/106/94 1/113/94 84/108/94
f 6/114/95 83/99/95 90/110/95
f 82/101/96 88/111/96 89/115/96
f 89/116/97 97/117/97 90/118/97
f 87/119/98 95/120/98 88/121/98
f 85/122/99 93/123/99 86/124/99
f 84/125/100 1/126/100 91/127/100
f 6/128/101 90/118/101 97/117/101
f 88/121/102 96/129/102 89/116/102
f 87/119/103 93/123/103 94/130/103
f 84/125/104 92/131/104 85/122/104
f 92/131/105 100/132/105 93/123/105
f 91/127/106 1/133/106 98/134/106
f 6/135/107 97/117/107 104/136/107
f 96/129/108 102/137/108 103/138/108
f 94/130/109 100/132/109 101/139/109
f 91/127/110 99/140/110 92/131/110
f 96/129/111 104/136/111 97/117/111
f 94/130/112 102/137/112 95/120/112
f 6/141/113 104/136/113 111/142/113
f 103/138/114 109/143/114 110/144/114
f 101/139/115 107/145/115 108/146/115
f 98/134/116 106/147/116 99/140/116
f 103/138/117 111/142/117 104/136/117
f 101/139/118 109/143/118 102/137/118
f 99/140/119 107/145/119 100/132/119
f 98/134/120 1/148/120 105/149/120
f 106/147/121 112/14/121 113/7/121
f 110/144/122 5/11/122 111/142/122
f 108/146/123 4/12/123 109/143/123
f 106/147/124 2/13/124 107/145/124
f 105/149/125 1/150/125 112/14/125
f 6/151/126 111/142/126 5/11/126
f 110/144/127 4/12/127 114/1/127
f 107/145/128 3/4/128 108/146/128
f 114/1/1 4/12/1 11/2/1
f 3/4/129 2/13/129 9/5/129
f 113/7/3 112/14/3 7/8/3
f 114/1/4 12/3/4 13/10/4
f 3/4/130 10/6/130 11/2/130
f 113/7/6 8/9/6 9/5/6
f 12/3/9 19/24/9 20/17/9
f 11/2/131 10/6/131 17/18/131
f 8/9/11 15/25/11 16/20/11
f 11/2/14 18/19/14 19/24/14
f 9/5/132 16/20/132 17/18/132
f 7/8/16 14/22/16 15/25/16
f 15/25/17 22/34/17 23/26/17
f 19/24/20 18/19/20 25/31/20
f 17/18/21 16/20/21 23/26/21
f 14/22/22 21/28/22 22/34/22
f 19/24/23 26/32/23 27/30/23
f 17/18/24 24/33/24 25/31/24
f 25/31/133 32/40/133 33/37/133
f 23/26/27 30/41/27 31/38/27
f 21/28/28 28/43/28 29/39/28
f 26/32/29 33/37/29 34/36/29
f 25/31/134 24/33/134 31/38/134
f 23/26/31 22/34/31 29/39/31
f 29/39/33 28/43/33 35/44/33
f 34/36/34 33/37/34 40/46/34
f 31/38/135 38/52/135 39/48/135
f 29/39/36 36/45/36 37/49/36
f 33/37/136 32/40/136 39/48/136
f 30/41/40 37/49/40 38/52/40
f 41/47/41 40/46/41 47/53/41
f 38/52/42 45/60/42 46/55/42
f 36/45/43 43/61/43 44/56/43
f 39/48/46 46/55/46 47/53/46
f 38/52/47 37/49/47 44/56/47
f 36/45/48 35/44/48 42/58/48
f 47/53/51 46/55/51 53/66/51
f 44/56/52 51/70/52 52/68/52
f 42/58/53 49/63/53 50/69/53
f 47/53/54 54/67/54 55/65/54
f 46/55/55 45/60/55 52/68/55
f 43/61/56 50/69/56 51/70/56
f 53/66/57 60/75/57 61/71/57
f 51/70/137 58/76/137 59/72/137
f 49/63/59 56/78/59 57/73/59
f 55/65/60 54/67/60 61/71/60
f 52/68/61 59/72/61 60/75/61
f 51/70/138 50/69/138 57/73/138
f 61/71/65 68/86/65 69/80/65
f 59/72/66 66/87/66 67/81/66
f 57/73/139 64/88/139 65/82/139
f 61/71/70 60/75/70 67/81/70
f 59/72/140 58/76/140 65/82/140
f 56/78/72 63/84/72 64/88/72
f 66/87/73 73/96/73 74/89/73
f 64/88/74 71/97/74 72/90/74
f 68/86/77 67/81/77 74/89/77
f 66/87/78 65/82/78 72/90/78
f 63/84/79 70/92/79 71/97/79
f 69/80/80 68/86/80 75/95/80
f 75/95/82 74/89/82 81/100/82
f 73/96/83 72/90/83 79/102/83
f 70/92/84 77/106/84 78/104/84
f 75/95/85 82/101/85 83/99/85
f 73/96/86 80/103/86 81/100/86
f 71/97/87 78/104/87 79/102/87
f 79/102/141 86/112/141 87/107/141
f 78/104/90 77/106/90 84/108/90
f 82/101/91 89/115/91 90/110/91
f 80/103/92 87/107/92 88/111/92
f 79/102/142 78/104/142 85/109/142
f 82/101/96 81/100/96 88/111/96
f 89/116/97 96/129/97 97/117/97
f 87/119/98 94/130/98 95/120/98
f 85/122/143 92/131/143 93/123/143
f 88/121/102 95/120/102 96/129/102
f 87/119/144 86/124/144 93/123/144
f 84/125/104 91/127/104 92/131/104
f 92/131/105 99/140/105 100/132/105
f 96/129/108 95/120/108 102/137/108
f 94/130/109 93/123/109 100/132/109
f 91/127/110 98/134/110 99/140/110
f 96/129/111 103/138/111 104/136/111
f 94/130/112 101/139/112 102/137/112
f 103/138/114 102/137/114 109/143/114
f 101/139/115 100/132/115 107/145/115
f 98/134/116 105/149/116 106/147/116
f 103/138/117 110/144/117 111/142/117
f 101/139/118 108/146/118 109/143/118
f 99/140/119 106/147/119 107/145/119
f 106/147/121 105/149/121 112/14/121
f 110/144/122 114/1/122 5/11/122
f 108/146/123 3/4/123 4/12/123
f 106/147/124 113/7/124 2/13/124
f 110/144/127 109/143/127 4/12/127
f 107/145/128 2/13/128 3/4/128
