# Blender 5.1.1
# www.blender.org
mtllib Mario.mtl
o Circle
v 8.591866 27.518353 5.430415
v 7.719761 29.446564 6.526774
v 6.308663 28.710064 8.300722
v 6.308664 26.326666 8.300722
v 7.719762 25.590166 6.526774
v 2.271649 54.074867 -10.317969
v 2.957311 54.329830 -10.784942
v 2.957312 47.481953 -9.997213
v 2.957313 40.107044 -4.997215
v 7.152701 55.749615 -8.935249
v 8.351174 54.329830 -9.339661
v 7.957314 47.481953 -8.657467
v 7.287442 42.481934 -7.497216
v 5.457314 40.107044 -4.327343
v 10.725877 56.975632 -5.157590
v 12.299756 54.329830 -5.391077
v 11.617570 47.481953 -4.997215
v 10.457312 42.481934 -4.327343
v 7.287442 40.107044 -2.497214
v 12.033746 57.424385 0.002785
v 13.745039 54.329830 0.002784
v 17.293095 47.481953 4.102289
v 11.617571 42.481934 0.002785
v 7.957315 40.107044 0.002785
v 10.725878 56.975632 5.163163
v 12.299757 54.329830 5.396646
v 11.617563 47.481953 5.002784
v 10.457313 42.481934 4.332911
v 7.287442 40.107044 2.502787
v 7.152702 55.749615 8.940822
v 8.351175 54.329830 9.345227
v 7.957314 47.481953 8.663040
v 7.287439 42.481934 7.502788
v 5.457314 40.107044 4.332914
v 1.796206 53.911716 -12.173581
v 2.271651 54.074867 10.323536
v 2.957312 54.329830 10.790509
v 2.957313 47.481953 10.002786
v 2.957314 42.481934 8.663040
v 2.957314 40.107044 5.002788
v -2.609397 52.400093 8.940822
v -2.436550 54.752689 9.345227
v -2.042685 47.481953 8.663040
v -1.372812 42.481934 7.502782
v 0.457313 40.107044 4.332912
v 2.957314 38.767300 0.002785
v -6.182577 51.174076 5.163164
v -6.385131 54.329830 5.396647
v -5.702938 47.481953 5.002785
v -4.542685 42.481934 4.332912
v -1.372815 40.107044 2.502784
v -7.490446 50.725323 0.002785
v -7.830407 54.329830 0.002785
v -7.042684 47.481953 0.002785
v -5.702938 42.481934 0.002785
v -2.042688 40.107044 0.002785
v -6.182577 51.174076 -5.157589
v -6.385132 54.329830 -5.391073
v -5.702938 47.481953 -4.997211
v -4.542686 42.481934 -4.327342
v -1.372815 40.107044 -2.497214
v -2.609398 52.400093 -8.935249
v -2.436551 54.752689 -9.339655
v -2.042686 47.481953 -8.657467
v -1.372813 42.481934 -7.497215
v 0.457313 40.107044 -4.327342
v 2.957314 42.481934 -8.657467
v 13.554167 47.481953 3.151688
v 13.554167 44.570217 0.002784
v 13.554167 47.481953 -3.146115
v 13.554167 50.393658 0.002784
v 17.293095 43.691216 0.002784
v 17.293095 47.481953 -4.096721
v 17.293095 51.272659 0.002784
v 21.125626 47.481953 0.002784
v 14.363681 58.564003 0.002784
v 11.590734 57.962566 -6.913323
v 7.554842 55.887611 -10.542255
v 11.590735 57.962566 6.918889
v 7.554842 55.887611 10.547829
v 1.796208 53.911716 12.179148
v -3.962423 51.935844 10.547829
v -8.178033 50.489407 6.090970
v -9.721054 49.959953 0.002785
v -8.178033 50.489407 -6.085395
v -3.962424 51.935844 -10.542255
v 0.434485 62.486034 -9.459681
v 10.113803 64.948616 0.002785
v 8.861748 64.810043 -4.728449
v 4.865625 64.032227 -8.191949
v 8.861748 64.810043 4.734021
v 4.865626 64.032227 8.197522
v 0.434489 62.486034 9.465254
v -4.518082 60.418709 8.197522
v -7.794108 59.294636 4.734022
v -8.993223 58.883198 0.002785
v -7.794108 59.294636 -4.728445
v -4.518082 60.418709 -8.191949
v -0.554299 65.366676 0.002785
v 18.868612 59.005718 0.002784
v 17.115759 58.404285 -5.803181
v 12.326864 56.761127 -10.053445
v 17.115759 58.404285 5.808752
v 12.326865 56.761127 10.059016
v 5.122378 42.481934 8.082914
v 4.579035 47.481953 9.332913
v 4.706780 54.329830 10.067868
v 4.207314 40.107044 4.667849
v 1.207843 54.329830 10.067868
v 1.707313 40.107044 4.667849
v 0.792251 42.481934 8.082914
v 1.335591 47.481953 9.332913
v 4.207314 40.107044 -4.662278
v 4.579034 47.481953 -9.327340
v 4.706779 54.329830 -10.062302
v 0.792250 42.481934 -8.077341
v 5.122377 42.481934 -8.077341
v 1.335592 47.481953 -9.327340
v 1.207844 54.329830 -10.062302
v 1.707314 40.107044 -4.662278
v 2.957313 52.854210 13.790512
v 2.957313 48.957573 13.002777
v 3.916265 48.957573 12.332916
v 1.922822 52.854210 13.067865
v 1.998362 48.957573 12.332916
v 3.991804 52.854210 13.067865
v 2.957311 52.854210 -13.784933
v 2.957312 48.957573 -12.997210
v 3.916264 48.957573 -12.327337
v 1.922821 52.854210 -13.062298
v 3.991803 52.854210 -13.062298
v 1.998360 48.957573 -12.327337
v 2.957311 56.825550 -10.784942
v 8.351174 56.825550 -9.339661
v 12.299756 57.634121 -5.391077
v 13.745038 58.140427 0.002784
v 12.299757 57.634121 5.396646
v 8.351175 56.825550 9.345227
v 2.957312 56.825550 10.790509
v -2.436550 56.825550 9.345227
v -6.385132 56.825550 5.396647
v -7.830407 56.825550 0.002785
v -6.385132 56.825550 -5.391073
v -2.436551 56.825550 -9.339655
v 5.654244 56.825550 10.067868
v 0.260381 56.825550 10.067868
v 5.654243 56.825550 -10.062302
v 0.260380 56.825550 -10.062302
v -5.282927 43.461235 5.015704
v -6.964005 54.271275 5.505723
v -5.282928 43.461235 -5.010134
v -6.964006 54.271275 -5.500152
v -4.778630 43.461235 4.511407
v -6.459702 54.271275 5.001426
v -4.778631 43.461235 -4.505837
v -6.459703 54.271275 -4.995855
v -6.436838 41.682014 -2.500105
v -6.436838 43.461235 0.002785
v -6.436837 41.682014 2.505675
v -8.126285 54.271275 2.505675
v -8.320882 54.271275 0.002785
v -8.126285 54.271275 -2.500105
v -5.723650 41.682014 2.505675
v -5.723650 43.461235 0.002785
v -5.723650 41.682014 -2.500105
v -7.607695 54.271275 -2.500105
v -7.607695 54.271275 0.002785
v -7.607694 54.271275 2.505675
v -1.197223 44.816551 9.099502
v -2.567639 54.694134 9.768879
v -2.383049 54.271275 9.079992
v -1.012636 44.816551 8.410615
v -2.603301 54.694134 -9.727645
v -1.232891 44.816551 -9.058267
v -1.048304 44.816551 -8.369380
v -2.418717 54.271275 -9.038758
v 0.248525 55.053955 -10.491789
v 1.618941 46.502243 -9.822411
v 1.803526 46.502243 -9.133530
v 0.433112 55.053955 -9.802902
v 1.561007 46.502243 9.838570
v 0.190593 55.053955 10.507941
v 0.375180 55.053955 9.819060
v 1.745594 46.502243 9.149683
v 4.695457 47.588573 -9.343439
v 8.706594 47.748478 -8.548355
v 4.580091 55.956821 -10.513621
v 8.591229 56.116730 -9.718537
v 4.695457 47.588573 9.349865
v 8.706595 47.748478 8.554781
v 4.580092 55.956821 10.520041
v 8.591230 56.116730 9.724962
v 13.487255 58.263309 3.460839
v 13.487254 58.263309 -3.455267
v 9.487776 64.879326 2.368402
v 9.487776 64.879326 -2.362830
v 17.992186 58.705002 2.905767
v 17.992186 58.705002 -2.900199
v 11.099354 63.614017 2.450171
v 13.919078 59.365635 2.450170
v 11.099354 63.614017 -2.444602
v 13.919078 59.365635 -2.444602
v 13.346660 56.503540 5.345624
v 13.346660 49.608574 5.345624
v 14.065652 56.503540 0.752637
v 14.065659 49.608574 0.752637
v 13.346659 56.503540 -5.340049
v 13.346660 49.608574 -5.340049
v 14.065651 56.503540 -0.747064
v 14.065659 49.608574 -0.747066
v -1.169260 19.267378 9.027767
v -0.812162 39.310394 3.893608
v -1.169261 19.267378 -9.022194
v -0.812162 39.310394 -3.888038
v 3.870880 19.267378 9.027767
v 1.143933 38.879166 3.893608
v 3.870879 19.267378 -9.022194
v 1.143933 38.879166 -3.888038
v -1.621958 21.431885 9.507740
v -1.921954 23.773775 10.379237
v -2.592110 28.957161 10.373473
v -2.323305 31.181463 10.130710
v -2.323312 34.830341 10.318195
v -1.325506 38.043388 10.707653
v -1.325507 38.043388 -10.702080
v -2.323313 34.830341 -10.312629
v -2.323306 31.181463 -10.125142
v -2.592111 28.957161 -10.367907
v -1.921955 23.773775 -10.373670
v -1.621959 21.431885 -9.502167
v 2.873073 38.043388 -10.702080
v 3.870877 34.830341 -10.312629
v 3.870877 31.181463 -10.125142
v 4.021032 28.957161 -10.367907
v 4.197208 23.773775 -10.373670
v 3.983264 21.431885 -9.502167
v 2.873074 38.043388 10.707653
v 3.870878 34.830341 10.318195
v 3.870878 31.181463 10.130710
v 4.021033 28.957161 10.373473
v 4.197209 23.773775 10.379237
v 3.983265 21.431885 9.507740
v -0.380989 32.057461 17.626202
v -1.516741 34.819229 17.626202
v -0.380990 37.156925 17.626202
v -0.380991 37.156925 -17.620636
v -1.516743 34.819229 -17.620636
v -0.380991 32.057461 -17.620636
v 3.082602 37.156925 -17.620636
v 4.218355 34.819229 -17.620636
v 3.082603 32.057461 -17.620636
v 3.082604 37.156925 17.626202
v 4.218356 34.819229 17.626202
v 3.082604 32.057461 17.626202
v -4.345130 18.511805 -4.509702
v -4.967474 17.489704 0.002785
v -4.345130 18.511805 4.515272
v -2.722759 39.731606 1.948197
v -3.279580 39.854370 0.002785
v -2.722759 39.731606 -1.942627
v 7.053832 19.267378 4.515272
v 7.905371 17.854939 0.002785
v 7.053832 19.267378 -4.509703
v 3.067046 38.455208 -1.942627
v 4.098790 38.227734 0.002785
v 3.067047 38.455208 1.948197
v 8.300669 21.491013 -4.509703
v 9.495014 20.776091 0.002785
v 8.300670 21.491013 4.515272
v 9.251554 23.714647 -4.923451
v 10.510439 23.714647 0.002785
v 9.251554 23.714647 4.929020
v 8.497178 28.957161 -5.242846
v 9.969592 28.957161 0.002785
v 8.497179 28.957161 5.248415
v 7.270130 31.893763 -5.390487
v 8.665632 31.893763 0.002785
v 7.270130 31.893763 5.396056
v 6.486228 34.830341 -5.390487
v 7.774603 34.830341 0.002785
v 6.486228 34.830341 5.396056
v 6.090566 36.238228 -5.390487
v 7.061189 36.238228 0.002785
v 6.090566 36.238228 5.396056
v -4.685443 20.735464 4.515272
v -5.748218 20.735464 0.002785
v -4.685443 20.735464 -4.509702
v -5.266326 22.959099 4.929021
v -6.159150 22.959099 0.002785
v -5.266326 22.959099 -4.923451
v -4.344987 28.957161 4.795635
v -5.006010 28.957161 0.002785
v -4.344988 28.957161 -4.790065
v -3.986788 31.893763 5.396056
v -4.609138 31.893763 0.002785
v -3.986788 31.893763 -5.390486
v -4.458744 34.830341 5.396056
v -5.081088 34.830341 0.002785
v -4.458744 34.830341 -5.390486
v -4.458744 37.766918 5.396056
v -5.081088 37.766918 0.002785
v -4.458744 37.766918 -5.390486
v -0.227750 41.961323 3.893608
v -0.227751 41.961323 -3.888038
v 1.728346 41.530071 3.893608
v 1.728346 41.530071 -3.888038
v -2.409245 42.382511 1.948197
v -2.966065 42.505272 0.002785
v -2.409245 42.382511 -1.942627
v 3.651459 41.106113 -1.942627
v 4.683203 40.878662 0.002785
v 3.651459 41.106113 1.948197
v -0.110479 32.222328 25.429773
v -1.068824 34.194859 25.429773
v -0.110480 36.167416 25.429773
v 2.812094 36.167416 25.429773
v 3.770439 34.194859 25.429773
v 2.812094 32.222328 25.429773
v -0.049593 36.081394 -25.449203
v -0.968008 34.191021 -25.449203
v -0.049592 32.300671 -25.449203
v 2.751205 36.081394 -25.449203
v 3.669619 34.191021 -25.449203
v 2.751205 32.300671 -25.449203
v -1.377832 34.451900 20.406473
v -0.297099 36.676346 20.406473
v 2.998714 36.676346 20.406473
v 2.998715 32.227455 20.406473
v -0.297099 32.227455 20.406473
v 4.079450 34.451900 20.406473
v 2.998713 32.227455 -20.400906
v 4.079448 34.451900 -20.400906
v -1.377834 34.451900 -20.400906
v -0.297101 32.227455 -20.400906
v 2.998713 36.676346 -20.400906
v -0.297101 36.676346 -20.400906
v -0.719347 31.231579 28.529762
v -2.077001 34.026012 28.529762
v -0.719347 36.820446 28.529762
v 3.420964 36.820446 28.529762
v 4.778618 34.026012 28.529762
v 3.420964 31.231579 28.529762
v -0.719350 36.820446 -28.524208
v -2.077003 34.026012 -28.524208
v -0.719349 31.231579 -28.524208
v 3.420961 36.820446 -28.524208
v 4.778616 34.026012 -28.524208
v 3.420962 31.231579 -28.524208
v -2.529328 28.074465 32.059025
v -5.074011 33.312115 32.059025
v -2.529328 38.549789 32.059025
v 5.230945 38.549789 32.059025
v 7.775627 33.312115 32.059025
v 5.230947 28.074465 32.059025
v -2.529331 38.549789 -32.053471
v -5.074014 33.312115 -32.053471
v -2.529330 28.074465 -32.053471
v 5.230942 38.549789 -32.053471
v 7.775624 33.312115 -32.053471
v 5.230944 28.074465 -32.053471
v -1.402421 30.169519 36.671852
v -2.425097 33.312115 37.451218
v -1.402422 36.454735 36.671852
v 4.104040 36.454735 36.671852
v 5.126716 33.312115 37.451218
v 4.104041 30.169519 36.671852
v -1.402425 36.454735 -36.666275
v -2.425100 33.312115 -37.445663
v -1.402425 30.169519 -36.666275
v 4.104037 36.454735 -36.666275
v 5.126713 33.312115 -37.445663
v 4.104037 30.169519 -36.666275
v -0.402736 31.643614 26.629782
v -1.552748 34.010658 26.629782
v -0.402736 36.377701 26.629782
v 3.104352 36.377701 26.629782
v 4.254366 34.010658 26.629782
v 3.104352 31.643614 26.629782
v -2.077001 34.026012 26.529766
v -0.719347 31.231579 26.529766
v -0.719347 36.820446 26.529766
v 3.420964 36.820446 26.529766
v 4.778618 34.026012 26.529766
v 3.420964 31.231579 26.529766
v -0.329675 36.282906 -26.599216
v -1.431771 34.014496 -26.599216
v -0.329675 31.746063 -26.599216
v 3.031285 36.282906 -26.599216
v 4.133382 34.014496 -26.599216
v 3.031286 31.746063 -26.599216
v -0.719349 36.820446 -26.524210
v -2.077003 34.026012 -26.524210
v -0.719349 31.231579 -26.524210
v 3.420961 36.820446 -26.524210
v 4.778616 34.026012 -26.524210
v 3.420962 31.231579 -26.524210
v -2.000479 13.611397 5.724239
v -0.626723 13.611397 9.450799
v 3.535589 13.611397 9.450799
v 0.129200 13.611397 1.997676
v 6.164176 13.611397 5.724239
v 4.493129 13.611397 1.997676
v 3.535589 13.611397 -9.445232
v -0.626724 13.611397 -9.445232
v 6.164176 13.611397 -5.718667
v -2.000480 13.611397 -5.718666
v 0.129200 13.611397 -1.992106
v 4.493129 13.611397 -1.992107
v -2.215178 11.050591 5.971914
v -0.766681 11.050591 9.649956
v 3.622084 11.050591 9.649956
v 0.019248 11.050591 2.042606
v 6.393679 11.050591 5.971914
v 4.620597 11.050591 2.042606
v 3.622084 11.050591 -9.644389
v -0.766682 11.050591 -9.644389
v 6.393678 11.050591 -5.966342
v -2.215176 11.050591 -5.966341
v 0.019248 11.050591 -2.037036
v 4.620598 11.050591 -2.037037
v -1.616321 8.036980 5.943561
v -0.253664 8.036980 9.640008
v 3.875013 8.036980 9.640008
v 0.477362 8.036980 2.247110
v 6.482356 8.036981 5.943560
v 4.806024 8.036980 2.247110
v 3.869907 8.036980 -9.634436
v -0.258772 8.036980 -9.634436
v 6.477250 8.036981 -5.937988
v -1.621427 8.036980 -5.937987
v 0.472256 8.036980 -2.241540
v 4.800919 8.036980 -2.241540
v -2.398608 8.036980 5.943561
v -0.763423 8.036980 10.379296
v 4.190989 8.036980 10.379296
v 0.113808 8.036980 1.507819
v 7.319804 8.036981 5.943560
v 5.308204 8.036980 1.507818
v 4.185883 8.036980 -10.373724
v -0.768529 8.036980 -10.373724
v 7.314698 8.036981 -5.937988
v -2.403717 8.036980 -5.937987
v 0.108702 8.036980 -1.502249
v 5.303099 8.036980 -1.502249
v -2.896784 3.429326 5.943561
v -1.261595 3.429327 11.030817
v 7.872611 6.279168 11.030817
v -0.384365 3.429327 1.061690
v 11.001429 6.279169 5.943560
v 8.989825 6.279168 1.061689
v 7.867505 6.279168 -11.025249
v -1.266702 3.429327 -11.025249
v 10.996319 6.279169 -5.937988
v -2.901886 3.429326 -5.937987
v -0.389470 3.429327 -1.056120
v 8.984722 6.279168 -1.056120
v -2.698896 -0.354305 5.943561
v -1.063708 -0.354305 10.737944
v 4.190991 -0.354305 10.737944
v -0.186477 -0.354305 1.061690
v 4.801442 -0.354305 5.943561
v 5.308204 -0.354305 1.061690
v 4.185884 -0.354305 -10.732376
v -1.068814 -0.354305 -10.732376
v 4.796336 -0.354305 -5.937987
v -2.703999 -0.354305 -5.937987
v -0.191582 -0.354305 -1.056120
v 5.303099 -0.354305 -1.056120
v 11.086889 4.346548 11.030816
v 14.215699 4.346548 5.943560
v 12.204101 4.346548 1.061689
v 7.876261 -0.354304 -10.732376
v 11.081780 4.346548 -11.025250
v 14.210596 4.346548 -5.937988
v 12.198998 4.346548 -1.056120
v 8.486712 -0.354304 -5.937988
v 7.881364 -0.354304 10.737944
v 8.491817 -0.354304 5.943560
v 8.998581 -0.354304 1.061689
v 8.993473 -0.354304 -1.056120
v 11.533942 1.922426 11.030816
v 14.662758 1.922427 5.943560
v 12.651155 1.922427 1.061689
v 8.233549 -0.354304 -10.732376
v 11.528833 1.922426 -11.025250
v 14.657656 1.922427 -5.937988
v 12.646047 1.922427 -1.056120
v 13.016531 -0.354304 -5.937988
v 9.892824 -0.354304 10.737944
v 13.021639 -0.354304 5.943560
v 11.010036 -0.354304 1.061689
v 11.004927 -0.354304 -1.056120
v -1.567737 38.676891 6.057900
v -1.567737 38.676891 -6.052327
v 2.507405 38.461266 -6.052327
v 2.507405 38.461266 6.057900
v 4.578806 37.346706 -5.710018
v 5.579989 37.232979 0.002785
v 4.578806 37.346706 5.715590
v -3.590751 38.749252 5.722642
v -4.180336 38.810642 0.002785
v -3.590752 38.749252 -5.717075
v 8.591866 27.518353 -5.491224
v 7.719761 29.446564 -6.587583
v 6.308663 28.710064 -8.361530
v 6.308663 26.326666 -8.361530
v 7.719761 25.590166 -6.587583
v 11.590735 57.322842 6.918889
v 7.554842 55.247887 10.547829
v 13.487255 57.623585 3.460839
v 13.487254 57.623585 -3.455267
v 14.363681 57.924278 0.002784
v 11.590734 57.322842 -6.913323
v 7.554842 55.247887 -10.542255
v 17.115759 57.764561 5.808752
v 12.326865 56.121403 10.059016
v 17.992186 58.065277 2.905767
v 17.992186 58.065277 -2.900199
v 18.868612 58.365993 0.002784
v 17.115759 57.764561 -5.803181
v 12.326864 56.121403 -10.053445
v 12.191855 48.175201 7.524293
v 10.095184 44.902763 7.912719
v 14.590310 45.657192 -0.743335
v 12.493640 42.384727 -0.354908
v 12.191854 48.175201 -7.441968
v 10.095183 44.902763 -7.830394
v 14.590310 45.657192 0.825658
v 12.493640 42.384727 0.437229
vn 0.7826 -0.0000 0.6225
vn 0.2146 -0.5687 -0.7941
vn 0.2139 -0.9039 -0.3705
vn 0.1081 -0.9085 -0.4036
vn 0.4408 0.0818 -0.8939
vn 0.4688 -0.1805 -0.8647
vn 0.3965 -0.3044 -0.8661
vn 0.4173 -0.9066 0.0626
vn 0.7081 0.3031 0.6378
vn 0.4888 -0.1206 0.8640
vn -0.0000 -1.0000 -0.0000
vn 0.4047 -0.5582 -0.7243
vn -0.2126 0.6390 0.7393
vn 0.1424 0.7468 0.6497
vn -0.3162 0.9487 -0.0000
vn 0.3245 -0.9459 -0.0000
vn 0.1543 -0.5109 0.8457
vn -0.2493 -0.6248 0.7399
vn 0.3705 -0.9039 -0.2139
vn 0.6694 -0.5996 -0.4386
vn 0.4766 0.8568 -0.1967
vn 0.5397 0.8419 -0.0000
vn 0.4767 -0.0675 -0.8764
vn 0.6875 -0.1805 -0.7034
vn 0.4278 -0.9039 -0.0000
vn 0.9996 0.0277 -0.0000
vn 0.8711 0.4911 -0.0000
vn 0.5406 -0.1697 -0.8240
vn -0.8102 0.4619 -0.3609
vn -0.8995 0.4369 -0.0000
vn 0.7188 -0.6952 -0.0000
vn 0.3790 -0.9254 -0.0000
vn 0.1543 -0.5109 -0.8457
vn 0.3705 -0.9039 0.2139
vn 0.2325 -0.0000 0.9726
vn 0.2285 -0.9735 -0.0000
vn 1.0000 -0.0000 -0.0000
vn -0.5681 0.5233 0.6351
vn 0.6694 -0.5997 0.4386
vn 0.5406 -0.1697 0.8240
vn 0.4173 -0.9066 -0.0626
vn 0.7081 0.3031 -0.6378
vn 0.4692 -0.8785 -0.0902
vn 0.2139 -0.9039 0.3705
vn 0.4688 -0.1806 0.8646
vn 0.4047 -0.5582 0.7243
vn 0.4766 0.8568 0.1967
vn 0.4377 0.7990 0.4123
vn 0.6875 -0.1805 0.7034
vn 0.4767 -0.0676 0.8765
vn -0.5524 -0.7151 -0.4283
vn 0.3965 -0.3044 0.8661
vn -0.0000 -0.5525 0.8335
vn 0.2146 -0.5687 0.7941
vn -0.5684 0.5230 -0.6351
vn -0.0000 -0.9039 0.4278
vn 0.1081 -0.9085 0.4036
vn -0.0000 -0.6653 0.7466
vn 0.6999 -0.4645 0.5426
vn -0.0000 -0.5376 0.8432
vn 0.8805 0.3253 -0.3448
vn 0.1424 0.7468 -0.6497
vn -0.2126 0.6389 -0.7393
vn -0.2146 -0.5687 0.7941
vn -0.2139 -0.9039 0.3705
vn -0.1081 -0.9085 0.4036
vn -0.4425 0.0805 0.8932
vn -0.4694 -0.1787 0.8647
vn -0.3980 -0.3035 0.8657
vn -0.4048 -0.5582 0.7243
vn -0.3705 -0.9039 0.2139
vn -0.8640 -0.0571 0.5003
vn -0.8507 -0.1841 0.4923
vn -0.5524 -0.7151 0.4283
vn -0.7167 -0.5613 0.4138
vn -0.8102 0.4619 0.3609
vn -0.8276 -0.5613 -0.0000
vn -0.4278 -0.9039 -0.0000
vn -0.9828 -0.1849 -0.0000
vn -0.2493 -0.6248 -0.7399
vn -0.3705 -0.9039 -0.2139
vn -0.9984 -0.0567 -0.0000
vn -0.8507 -0.1841 -0.4924
vn 0.4888 -0.1206 -0.8640
vn -0.7167 -0.5613 -0.4138
vn -0.2139 -0.9039 -0.3705
vn -0.8641 -0.0573 -0.5000
vn -0.4694 -0.1787 -0.8647
vn 0.4622 -0.8868 -0.0000
vn 0.9045 0.4264 -0.0001
vn 0.8805 0.3253 0.3449
vn -0.4047 -0.5582 -0.7243
vn 0.4377 0.7990 -0.4123
vn -0.0000 0.5521 -0.8338
vn -0.7108 0.3537 -0.6080
vn -0.4425 0.0805 -0.8932
vn -0.6635 -0.7482 -0.0000
vn -0.1081 -0.9085 -0.4036
vn -0.0000 -0.9039 -0.4278
vn -0.3980 -0.3035 -0.8657
vn -0.0000 -0.5525 -0.8335
vn -0.2146 -0.5687 -0.7941
vn 0.2285 0.9735 -0.0000
vn 0.2325 -0.0000 -0.9726
vn 0.8805 0.3253 0.3448
vn 0.7080 0.3032 -0.6378
vn 0.8805 0.3254 -0.3449
vn 0.7080 0.3032 0.6378
vn 0.4888 -0.1205 -0.8640
vn 0.6360 -0.7259 -0.2619
vn 0.4205 -0.2500 -0.8722
vn 0.9573 -0.0000 -0.2890
vn 0.1019 -0.0000 0.9948
vn 0.9573 -0.0000 0.2890
vn 0.8502 -0.0164 0.5263
vn 0.8502 -0.0164 -0.5263
vn -0.6999 -0.4645 0.5426
vn 0.4408 0.0818 0.8939
vn -0.0000 -0.6653 -0.7466
vn -0.6999 -0.4645 -0.5426
vn -0.0000 -0.5376 -0.8432
vn 0.7108 0.3537 0.6080
vn -0.7108 0.3537 0.6080
vn -0.0000 0.5521 0.8338
vn -0.0000 0.3675 0.9300
vn 0.7108 0.3537 -0.6080
vn 0.6999 -0.4645 -0.5426
vn -0.0000 0.3675 -0.9300
vn -0.0000 -0.0614 -0.9981
vn 0.4946 -0.0210 -0.8689
vn 0.8760 -0.0000 -0.4823
vn -0.4783 -0.0646 -0.8758
vn -0.8660 -0.0000 -0.5000
vn -0.4849 -0.0243 -0.8742
vn 0.2559 -0.0486 -0.9655
vn 0.8760 -0.0000 0.4823
vn -0.0000 -0.0613 0.9981
vn -0.4783 -0.0646 0.8758
vn -0.8660 -0.0000 0.5000
vn 0.4946 -0.0210 0.8689
vn -0.2577 -0.0513 0.9649
vn -0.4849 -0.0243 0.8742
vn -1.0000 -0.0000 -0.0000
vn 0.2559 -0.0486 0.9655
vn -0.2577 -0.0513 -0.9649
vn -0.7632 0.6258 -0.1610
vn -0.4761 -0.6489 -0.5935
vn -0.5361 -0.8423 -0.0569
vn 0.5985 -0.6747 0.4318
vn 0.5207 -0.8518 -0.0577
vn -0.6417 0.6435 0.4172
vn 0.3079 0.6683 -0.6772
vn 0.3202 0.8825 -0.3444
vn 0.1482 -0.9881 0.0406
vn -0.4768 -0.6488 0.5931
vn -0.5361 -0.8423 0.0569
vn -0.0000 1.0000 -0.0000
vn -0.6418 0.6434 -0.4173
vn 0.3201 0.8825 0.3445
vn -0.7632 0.6258 0.1610
vn 0.1482 -0.9881 -0.0406
vn -0.8010 -0.5986 -0.0000
vn -0.1153 -0.7065 0.6983
vn 0.8448 -0.3114 -0.4352
vn 0.5614 -0.3833 0.7334
vn 0.6016 -0.6741 -0.4285
vn 0.5204 -0.8520 0.0568
vn -0.4313 0.6879 0.5838
vn 0.3093 0.6692 0.6756
vn 0.8430 -0.3173 0.4344
vn 0.5968 0.6292 0.4979
vn -0.4291 0.6890 -0.5841
vn -0.1205 -0.7063 -0.6976
vn 0.5595 -0.3886 -0.7321
vn 0.3909 0.6730 -0.6280
vn 0.5949 0.6308 -0.4981
vn 0.3891 0.6745 0.6274
vn 0.1978 -0.1331 -0.9712
vn 0.1978 -0.1331 0.9712
vn 0.8805 0.3252 -0.3449
vn 0.6994 -0.7148 -0.0000
vn 0.6705 -0.7145 -0.1997
vn 0.6638 -0.0000 -0.7479
vn 0.9045 0.4264 -0.0000
vn 0.8332 0.5530 -0.0000
vn 0.9880 -0.0000 0.1547
vn 0.9880 -0.0000 -0.1547
vn -0.3932 0.8905 -0.2287
vn -0.0571 0.8618 -0.5040
vn -0.0803 0.9708 -0.2260
vn 0.3512 0.8161 -0.4589
vn 0.2902 0.9517 -0.1002
vn 0.6277 0.7219 0.2913
vn 0.2902 0.9517 0.1002
vn 0.5102 0.8571 0.0712
vn 0.3512 0.8161 0.4589
vn -0.0803 0.9708 0.2260
vn 0.4597 -0.1314 0.8783
vn 0.9746 -0.0644 0.2147
vn 0.8661 -0.3221 0.3822
vn -0.5067 0.8084 0.2995
vn 0.3512 0.8161 0.4590
vn 0.6278 0.7218 0.2913
vn 0.3966 -0.3356 0.8544
vn -0.4796 -0.1544 0.8638
vn 0.3973 -0.1718 0.9015
vn -0.4637 -0.3087 0.8305
vn 0.4114 0.1003 0.9059
vn -0.4801 -0.1631 0.8619
vn -0.7864 -0.2364 0.5707
vn -0.5795 0.0682 0.8121
vn 0.5204 0.8384 0.1623
vn -0.5286 0.8335 0.1605
vn 0.5527 0.8258 0.1121
vn -0.5307 0.8095 0.2512
vn -0.9899 0.0710 0.1231
vn 0.8735 -0.1402 0.4663
vn 0.8132 -0.3786 0.4420
vn 0.8680 0.1952 0.4567
vn 0.8746 0.2388 0.4220
vn 0.9031 0.2357 0.3589
vn 0.7153 -0.1859 0.6737
vn 0.7982 0.5502 0.2453
vn 0.9531 0.1274 0.2744
vn -0.4796 -0.1544 -0.8638
vn 0.3966 -0.3356 -0.8544
vn 0.4597 -0.1313 -0.8783
vn -0.4637 -0.3087 -0.8305
vn 0.3973 -0.1718 -0.9015
vn -0.4801 -0.1631 -0.8619
vn 0.4113 0.1004 -0.9059
vn -0.7864 -0.2364 -0.5707
vn -0.5795 0.0682 -0.8121
vn 0.7153 -0.1859 -0.6737
vn -0.5622 -0.8178 -0.1231
vn 0.5887 -0.8048 -0.0758
vn -0.9524 0.0481 -0.3010
vn -0.8973 -0.2366 -0.3727
vn -0.8955 -0.3321 -0.2963
vn -0.9353 -0.0926 -0.3415
vn -0.9628 0.1020 -0.2503
vn -0.9704 -0.0115 -0.2413
vn -0.8740 0.4180 -0.2478
vn -0.9643 -0.0303 -0.2632
vn -0.5334 0.8353 0.1333
vn 0.5136 0.8537 -0.0861
vn 0.5334 0.8353 0.1333
vn -0.9979 -0.0029 0.0640
vn -0.5136 0.8537 -0.0861
vn -0.5432 -0.8385 -0.0442
vn -0.9873 0.0159 0.1580
vn -0.5174 -0.8191 0.2478
vn 0.5432 -0.8385 -0.0442
vn 0.9873 0.0159 0.1580
vn 0.9973 -0.0030 -0.0735
vn 0.9964 0.0739 0.0418
vn 0.9531 0.1274 -0.2744
vn 0.5527 0.8258 -0.1121
vn 0.5204 0.8384 -0.1623
vn 0.5887 -0.8048 0.0758
vn -0.5622 -0.8178 0.1231
vn -0.5286 0.8335 -0.1605
vn -0.5307 0.8095 -0.2512
vn -0.9899 0.0710 -0.1231
vn 0.9964 0.0739 -0.0418
vn -0.9524 0.0481 0.3010
vn -0.8740 0.4180 0.2478
vn -0.9643 -0.0304 0.2632
vn -0.9969 -0.0791 -0.0000
vn -0.9410 0.3383 -0.0000
vn -0.9704 -0.0115 0.2413
vn -0.9998 -0.0223 -0.0000
vn -0.9628 0.1020 0.2503
vn -0.9896 0.1439 -0.0000
vn -0.9353 -0.0926 0.3415
vn -0.9995 -0.0316 -0.0000
vn -0.8973 -0.2366 0.3727
vn -0.9758 -0.2187 -0.0000
vn -0.8955 -0.3321 0.2963
vn -0.8460 -0.5332 -0.0000
vn 0.7981 0.5503 -0.2453
vn 0.9031 0.2357 -0.3589
vn 0.8004 0.5994 -0.0000
vn 0.9480 0.3184 -0.0000
vn 0.8746 0.2388 -0.4220
vn 0.9418 0.3362 -0.0000
vn 0.8680 0.1952 -0.4566
vn 0.9684 0.2492 -0.0000
vn 0.8735 -0.1402 -0.4663
vn 0.9916 -0.1295 -0.0000
vn 0.8132 -0.3786 -0.4420
vn 0.9026 -0.4305 -0.0000
vn 0.8661 -0.3221 -0.3822
vn 0.8346 -0.5508 -0.0000
vn 0.3512 0.8161 -0.4590
vn -0.5067 0.8084 -0.2995
vn 0.6278 0.7218 -0.2914
vn -0.6477 0.7619 -0.0001
vn 0.7168 0.6973 -0.0000
vn 0.5403 -0.2955 0.7879
vn 0.9746 -0.0644 -0.2147
vn -0.4288 -0.3592 0.8289
vn -0.5178 0.0321 0.8549
vn 0.4451 0.0712 0.8927
vn 0.6277 0.7219 -0.2913
vn 0.5102 0.8571 -0.0712
vn 0.5429 0.8398 -0.0000
vn -0.0571 0.8618 0.5040
vn -0.3932 0.8905 0.2287
vn -0.5067 0.8085 0.2994
vn -0.7043 0.7100 -0.0000
vn -0.5067 0.8085 -0.2994
vn 0.6277 0.7218 -0.2915
vn 0.3710 -0.0818 -0.9250
vn 0.7807 -0.1721 -0.6008
vn 0.6279 0.7218 0.2912
vn 0.3710 -0.0818 0.9250
vn 0.3513 0.8161 0.4590
vn -0.0570 0.8618 -0.5041
vn 0.3513 0.8161 -0.4590
vn -0.5066 0.8085 -0.2995
vn -0.3589 0.0608 -0.9314
vn -0.5066 0.8085 0.2995
vn -0.3589 0.0608 0.9314
vn -0.8470 0.1175 0.5185
vn 0.9766 -0.2153 -0.0000
vn -0.6476 0.7620 -0.0000
vn -0.9931 0.1174 -0.0000
vn 0.7807 -0.1721 0.6008
vn -0.8470 0.1175 -0.5185
vn -0.0570 0.8618 0.5041
vn 0.5164 -0.8168 -0.2572
vn -0.1255 -0.1911 -0.9735
vn -0.5164 -0.8168 -0.2572
vn -0.9261 0.0261 -0.3764
vn -0.3969 -0.6391 -0.6588
vn -0.4801 -0.7550 -0.4466
vn 0.5431 -0.8389 0.0345
vn -0.5432 -0.8389 0.0345
vn 0.9980 -0.0028 0.0639
vn 0.9857 0.0160 -0.1678
vn -0.9857 0.0160 -0.1678
vn -0.5140 0.8545 0.0757
vn 0.2062 0.2939 0.9333
vn -0.2062 0.2939 0.9333
vn 0.4741 0.8184 0.3246
vn 0.7556 -0.0003 0.6550
vn 0.9261 0.0261 0.3764
vn 0.5140 0.8545 0.0757
vn 0.5330 0.8340 -0.1428
vn -0.5330 0.8340 -0.1428
vn -0.9973 -0.0030 -0.0735
vn 0.5174 -0.8191 0.2478
vn -0.9932 -0.0149 -0.1151
vn 0.4801 -0.7550 -0.4466
vn 0.9932 -0.0149 -0.1151
vn 0.5216 -0.8426 -0.1339
vn -0.3131 -0.0137 -0.9496
vn 0.7370 -0.0007 -0.6758
vn 0.9261 0.0261 -0.3764
vn 0.3131 -0.0137 -0.9496
vn 0.1255 -0.1911 -0.9735
vn 0.4741 0.8184 -0.3246
vn -0.3989 0.6403 -0.6564
vn -0.4741 0.8184 -0.3246
vn -0.4801 -0.7550 0.4466
vn -0.9932 -0.0149 0.1151
vn -0.5217 -0.8426 0.1338
vn 0.5434 0.8378 -0.0534
vn -0.7556 -0.0003 0.6550
vn -0.9261 0.0261 0.3764
vn -0.3576 -0.0145 0.9338
vn -0.1484 -0.2352 0.9606
vn 0.4801 -0.7550 0.4466
vn -0.4071 -0.6535 0.6382
vn -0.3651 -0.6052 -0.7074
vn -0.3652 0.6052 0.7074
vn -0.5434 0.8378 -0.0534
vn 0.3652 -0.6051 -0.7074
vn 0.5217 -0.8426 0.1339
vn -0.3651 -0.6052 0.7074
vn -0.5217 -0.8426 -0.1339
vn 0.5434 0.8378 0.0534
vn -0.4741 0.8184 0.3246
vn -0.5434 0.8378 0.0534
vn 0.9932 -0.0149 0.1151
vn 0.5645 -0.0000 0.8254
vn 0.3651 -0.6052 0.7074
vn 0.3652 0.6052 0.7074
vn -0.5646 -0.0000 0.8254
vn -0.5646 -0.0000 -0.8254
vn -0.3652 0.6051 -0.7075
vn 0.5645 -0.0000 -0.8254
vn 0.3652 0.6051 -0.7074
vn -0.0000 -0.2204 -0.9754
vn 0.1841 -0.0895 -0.9788
vn -0.0000 0.2359 -0.9718
vn -0.1841 -0.0895 -0.9788
vn 0.1892 0.0919 -0.9776
vn -0.1892 0.0919 -0.9776
vn 0.3967 -0.6392 -0.6588
vn -0.1844 0.2546 -0.9493
vn -0.7370 -0.0007 -0.6758
vn 0.1844 0.2546 -0.9493
vn 0.3988 0.6403 -0.6564
vn -0.1163 0.0565 0.9916
vn 0.1143 -0.0555 0.9919
vn 0.1163 0.0565 0.9916
vn -0.0000 -0.1382 0.9904
vn -0.0000 0.1443 0.9895
vn -0.1143 -0.0555 0.9919
vn 0.4079 0.6539 0.6372
vn 0.3576 -0.0145 0.9338
vn 0.4073 -0.6533 0.6382
vn -0.4081 0.6538 0.6372
vn 0.1484 -0.2352 0.9606
vn 0.4414 0.0596 0.8953
vn -0.5201 -0.0637 0.8518
vn 0.5375 -0.0059 0.8432
vn -0.9757 -0.1982 0.0934
vn -0.4288 -0.3592 -0.8289
vn 0.5403 -0.2955 -0.7879
vn 0.5376 -0.0061 -0.8432
vn -0.5178 0.0321 -0.8549
vn -0.9967 -0.0557 0.0594
vn -0.9757 -0.1982 -0.0934
vn 0.4451 0.0712 -0.8927
vn -0.5861 -0.0041 -0.8102
vn -0.6463 0.7612 0.0536
vn -0.5202 -0.0641 -0.8516
vn -0.6469 0.7607 -0.0536
vn -0.9966 -0.0564 -0.0594
vn -0.2811 0.8057 -0.5213
vn 0.9912 0.0610 -0.1178
vn 0.2618 0.8322 -0.4888
vn 0.4417 0.0593 -0.8952
vn 0.9911 0.0618 0.1178
vn -0.5863 -0.0045 0.8101
vn -0.2811 0.8059 0.5210
vn 0.3021 0.8465 0.4383
vn 0.2618 0.8324 0.4885
vn 0.5282 0.8475 0.0523
vn -0.2856 0.8379 0.4651
vn -0.2859 0.8381 -0.4646
vn 0.3020 0.8468 -0.4379
vn 0.5288 0.8471 -0.0523
vn 0.1034 0.7659 0.6346
vn -0.5321 0.0485 0.8453
vn 0.2859 0.5790 0.7636
vn -0.4446 0.6670 -0.5979
vn -0.9963 0.0358 0.0782
vn -0.7383 0.6716 0.0623
vn -0.7383 0.6716 -0.0623
vn -0.5321 0.0485 -0.8453
vn -0.9963 0.0358 -0.0782
vn 0.1034 0.7659 -0.6347
vn -0.3837 0.6619 -0.6439
vn -0.4538 -0.6252 -0.6349
vn -0.7571 -0.6505 0.0599
vn -0.7571 -0.6505 -0.0599
vn -0.0000 -0.7071 -0.7071
vn -0.3999 -0.6165 -0.6782
vn 0.4790 0.8766 0.0468
vn 0.4718 0.3859 0.7928
vn 0.8521 0.5190 0.0677
vn 0.2779 0.9600 0.0341
vn 0.2610 0.5391 0.8008
vn -0.3836 0.6620 0.6439
vn -0.4445 0.6670 0.5979
vn -0.5866 0.0399 0.8089
vn 0.0777 0.7821 -0.6183
vn -0.5866 0.0399 -0.8089
vn 0.2859 0.5790 -0.7636
vn 0.2779 0.9600 -0.0341
vn 0.4790 0.8766 -0.0468
vn 0.0777 0.7821 0.6183
vn 0.2610 0.5391 -0.8008
vn -0.4538 -0.6252 0.6349
vn -0.3999 -0.6165 0.6782
vn -0.0000 -0.7071 0.7071
vn -0.0202 -0.7203 -0.6934
vn 0.0025 -0.7262 -0.6875
vn 0.4687 0.3904 -0.7924
vn 0.0025 -0.7262 0.6875
vn 0.2023 -0.7153 0.6689
vn -0.0164 -0.7232 0.6905
vn 0.2649 -0.6928 0.6707
vn 0.0982 -0.7132 -0.6941
vn 0.5317 -0.1715 0.8294
vn 0.5283 0.4193 0.7383
vn 0.5283 0.4193 -0.7383
vn 0.8521 0.5190 -0.0677
vn 0.5242 -0.2345 -0.8187
vn 0.5095 -0.8574 -0.0729
vn 0.5444 -0.8369 0.0567
vn 0.9763 -0.2035 0.0730
vn 0.6249 -0.1565 -0.7648
vn 0.2649 -0.6928 -0.6707
vn 0.6249 -0.1565 0.7648
vn 0.9668 -0.2428 -0.0799
vn 0.7826 -0.0000 -0.6225
vn 0.6361 -0.7257 0.2620
vn 0.3788 -0.7349 0.5626
vn 0.4204 -0.2503 0.8721
vn 0.3788 -0.7349 -0.5626
vn 0.6360 -0.7258 -0.2621
vn 0.4205 -0.2503 -0.8721
vn 0.7160 -0.6810 -0.1535
vn 0.6995 -0.7147 -0.0000
vn 0.6706 -0.7144 -0.1997
vn 0.6707 -0.7144 0.1997
vn 0.6898 -0.6290 0.3585
vn 0.7160 -0.6810 0.1534
vn 0.6898 -0.6290 -0.3585
vn 0.1019 -0.0000 -0.9948
vn 0.6638 -0.0000 0.7479
vn 0.8805 0.3252 0.3449
vn 0.9046 0.4263 -0.0000
vn 0.4888 -0.1205 0.8640
vn 0.6360 -0.7259 0.2619
vn 0.6705 -0.7145 0.1997
vn -0.0611 0.9274 0.3691
vn -0.0611 0.9274 0.3690
vn -0.0777 0.9952 0.0603
vn -0.0776 0.9952 0.0602
vn -0.0932 0.9933 0.0682
vn -0.0933 0.9933 0.0683
vn -0.0932 0.9933 0.0683
vn -0.0932 0.9933 -0.0682
vn -0.0932 0.9933 -0.0683
vn -0.0776 0.9952 -0.0602
vn -0.0777 0.9952 -0.0603
vn -0.0611 0.9274 -0.3691
vn 0.8002 -0.4682 0.3747
vn 0.8002 -0.4682 -0.3747
vn 0.4692 -0.8785 0.0902
vn -0.7743 0.6328 -0.0000
vn -0.0571 0.8617 0.5041
vn -0.0571 0.8617 -0.5041
vn 0.7167 0.6974 -0.0000
vn -0.6477 0.7619 -0.0000
vn 0.8058 -0.5922 -0.0001
vn 0.4205 -0.2501 0.8721
vt 0.580258 0.097435
vt 0.665798 0.097435
vt 0.665798 0.182975
vt 0.186546 0.573665
vt 0.052112 0.708098
vt 0.052112 0.573665
vt 0.030645 0.048535
vt 0.192281 0.210171
vt 0.030645 0.210171
vt 0.186546 0.708098
vt 0.049247 0.798830
vt 0.210884 0.798830
vt 0.210884 0.960466
vt 0.049247 0.960466
vt 0.130065 0.798830
vt 0.192281 0.048535
vt 0.111463 0.210171
vt 0.045733 0.799494
vt 0.122304 0.949938
vt 0.046789 0.950055
vt 0.130065 0.960466
vt 0.100247 0.937679
vt 0.195833 0.842092
vt 0.100247 0.842092
vt 0.195833 0.937679
vt 0.210613 0.056556
vt 0.055718 0.211451
vt 0.055718 0.056556
vt 0.210613 0.211451
vt 0.776852 0.012573
vt 0.991175 0.628816
vt 0.991175 0.012573
vt 0.989222 0.628816
vt 0.776852 0.628816
vt 0.198875 0.799494
vt 0.122304 0.797656
vt 0.254718 0.004831
vt 0.495495 0.245608
vt 0.254718 0.245608
vt 0.292492 0.415061
vt 0.489806 0.722141
vt 0.292492 0.722141
vt 0.489806 0.415061
vt 0.099701 0.818740
vt 0.152858 0.925055
vt 0.099701 0.925055
vt 0.152858 0.818740
vt 0.224807 0.308997
vt 0.078729 0.455074
vt 0.078729 0.308997
vt 0.053926 0.786457
vt 0.200004 0.932535
vt 0.053926 0.932535
vt 0.044625 0.798859
vt 0.190703 0.944936
vt 0.044625 0.944936
vt 0.224807 0.455074
vt 0.200004 0.786457
vt 0.063227 0.801959
vt 0.209305 0.948037
vt 0.063227 0.948037
vt 0.209305 0.801959
vt 0.190703 0.798859
vt 0.224807 0.814361
vt 0.078729 0.960438
vt 0.078729 0.814361
vt 0.224807 0.960438
vt 0.060127 0.811260
vt 0.206205 0.957338
vt 0.060127 0.957338
vt 0.206205 0.811260
vt 0.133166 0.957338
vt 0.133166 0.811260
vt 0.151768 0.960438
vt 0.151768 0.814361
vt 0.041524 0.557028
vt 0.187602 0.703106
vt 0.041524 0.703106
vt 0.187602 0.557028
vt 0.393186 0.199525
vt 0.356806 0.235905
vt 0.356806 0.199525
vt 0.397634 0.188876
vt 0.358559 0.227951
vt 0.358559 0.188876
vt 0.393186 0.235905
vt 0.397634 0.227951
vt 0.395439 0.184870
vt 0.360754 0.219555
vt 0.360754 0.184870
vt 0.392668 0.187642
vt 0.357325 0.222985
vt 0.357325 0.187642
vt 0.350853 0.190471
vt 0.392939 0.232557
vt 0.350853 0.232557
vt 0.392939 0.190471
vt 0.390689 0.195822
vt 0.353103 0.233407
vt 0.353103 0.195822
vt 0.390689 0.233407
vt 0.041524 0.054765
vt 0.187602 0.200842
vt 0.041524 0.200842
vt 0.187602 0.054765
vt 0.050826 0.054765
vt 0.196903 0.200842
vt 0.050826 0.200842
vt 0.151768 0.455074
vt 0.151768 0.308997
vt 0.253200 0.966496
vt 0.753959 0.783008
vt 0.753959 0.966496
vt 0.253200 0.783008
vt 0.989222 0.012573
vt 0.197819 0.950055
vt 0.495495 0.004831
vt 0.395439 0.219555
vt 0.392668 0.222985
vt 0.196903 0.054765
s 1
usemtl Material.001
f 3/1/1 4/2/1 2/3/1
f 1/1/1 2/2/1 4/3/1
f 5/1/1 1/2/1 4/3/1
f 117/4/2 14/5/3 113/6/4
f 115/4/5 12/5/6 114/6/7
f 30/7/8 79/8/9 80/9/10
f 46/6/11 113/10/4 14/5/3
f 117/6/2 12/10/6 13/5/12
f 93/11/13 92/12/14 99/13/15
f 41/11/16 81/13/17 82/14/18
f 46/6/11 14/4/3 19/10/19
f 12/4/6 18/5/20 13/6/12
f 196/15/21 99/13/15 88/11/22
f 13/4/12 19/5/19 14/6/3
f 11/4/23 17/5/24 12/6/6
f 46/6/11 19/4/19 24/10/25
f 21/6/26 71/4/27 70/10/28
f 97/11/29 96/12/30 99/13/15
f 19/6/19 23/10/31 24/5/25
f 70/6/28 69/4/32 23/10/31
f 62/12/16 35/14/33 6/11/16
f 46/6/11 24/4/25 29/10/34
f 22/6/35 72/4/36 75/10/37
f 94/11/38 93/12/13 99/13/15
f 24/6/25 28/10/39 29/5/34
f 68/6/40 23/4/31 69/10/32
f 10/16/41 77/9/42 15/7/43
f 46/6/11 29/4/34 34/10/44
f 28/6/39 32/10/45 33/5/46
f 195/15/47 99/13/15 91/11/48
f 28/4/39 34/5/44 29/6/34
f 27/6/49 31/10/50 32/5/45
f 52/12/16 85/14/51 57/11/16
f 106/4/52 39/5/53 105/6/54
f 98/11/55 97/12/29 99/13/15
f 105/4/54 40/5/56 108/6/57
f 38/6/58 123/10/59 122/5/60
f 15/16/43 77/8/42 194/17/61
f 46/6/11 108/10/57 40/5/56
f 90/11/62 87/12/63 99/13/15
f 111/4/64 45/5/65 110/6/66
f 109/4/67 43/5/68 112/6/69
f 36/11/16 80/13/10 81/14/17
f 46/6/11 110/10/66 45/5/65
f 111/6/64 43/10/68 44/5/70
f 44/4/70 51/5/71 45/6/65
f 43/6/68 48/10/72 49/5/73
f 47/11/16 82/13/18 83/14/74
f 46/6/11 45/4/65 51/10/71
f 44/6/70 49/10/73 50/5/75
f 95/11/76 94/12/38 99/13/15
f 51/6/71 55/10/77 56/5/78
f 48/4/72 54/5/79 49/6/73
f 57/12/16 86/14/80 62/11/16
f 46/6/11 51/4/71 56/10/78
f 49/4/73 55/5/77 50/6/75
f 92/11/14 91/12/48 99/13/15
f 55/4/77 61/5/81 56/6/78
f 53/4/82 59/5/83 54/6/79
f 6/12/16 78/14/84 10/11/41
f 46/6/11 56/4/78 61/10/81
f 55/6/77 59/10/83 60/5/85
f 87/11/63 98/12/55 99/13/15
f 60/4/85 66/5/86 61/6/81
f 58/4/87 64/5/88 59/6/83
f 20/16/89 76/8/90 193/17/91
f 46/6/11 61/4/81 66/10/86
f 59/4/83 65/5/92 60/6/85
f 89/11/93 90/12/62 99/13/15
f 7/4/94 130/5/95 119/6/96
f 52/11/16 83/13/74 84/14/97
f 46/6/11 120/10/98 9/5/99
f 118/4/100 67/5/101 116/6/102
f 96/11/30 95/12/76 99/13/15
f 116/4/102 9/5/99 120/6/98
f 70/6/28 74/10/103 73/5/104
f 68/6/40 71/4/27 21/10/26
f 68/6/40 72/10/36 22/5/35
f 70/4/28 72/5/36 69/6/32
f 68/4/40 74/5/103 71/6/27
f 193/18/105 88/19/22 195/20/47
f 74/6/103 22/4/35 75/10/37
f 72/6/36 73/4/104 75/10/37
f 73/6/104 74/4/103 75/10/37
f 86/11/80 97/13/29 98/14/55
f 83/12/74 96/14/30 84/11/97
f 77/11/106 90/13/62 89/14/93
f 85/11/51 96/13/30 97/14/29
f 35/11/33 98/13/55 87/14/63
f 81/12/17 94/14/38 82/11/18
f 194/15/107 89/13/93 196/21/21
f 82/12/18 95/14/76 83/11/74
f 79/12/108 92/14/14 80/11/10
f 78/11/84 87/13/63 90/14/62
f 80/12/10 93/14/13 81/11/17
f 78/12/109 513/11/110 514/12/111
f 518/22/112 101/23/112 198/24/112
f 80/24/113 516/25/113 104/23/113
f 197/24/114 519/25/114 100/23/114
f 26/6/115 27/4/49 68/10/40
f 17/6/24 16/4/116 70/10/28
f 17/6/24 70/4/28 18/10/20
f 27/6/49 28/4/39 68/10/40
f 68/6/40 21/4/26 26/10/115
f 70/6/28 16/4/116 21/10/26
f 23/6/31 18/4/20 70/10/28
f 23/6/31 68/4/40 28/10/39
f 39/6/53 112/10/69 111/5/64
f 38/4/58 125/5/117 112/6/69
f 40/6/56 111/10/64 110/5/66
f 32/6/45 107/10/118 106/5/52
f 34/6/44 105/10/54 108/5/57
f 32/4/45 105/5/54 33/6/46
f 66/6/86 116/10/102 120/5/98
f 64/4/88 116/5/102 65/6/92
f 64/6/88 119/10/96 118/5/100
f 67/6/101 114/10/7 117/5/2
f 8/6/119 132/10/120 128/5/121
f 9/6/99 117/10/2 113/5/4
f 126/4/122 122/5/60 123/6/59
f 122/6/60 124/10/123 125/5/117
f 37/6/124 124/10/123 121/5/125
f 37/4/124 126/5/122 107/6/118
f 107/4/118 123/5/59 106/6/52
f 109/6/67 125/10/117 124/5/123
f 130/4/95 128/5/121 132/6/120
f 128/6/121 131/10/126 129/5/127
f 115/6/5 129/10/127 131/5/126
f 119/4/96 132/5/120 118/6/100
f 8/4/119 129/5/127 114/6/7
f 7/6/94 131/10/126 127/5/128
f 119/4/96 133/5/129 7/6/94
f 16/6/116 134/10/130 135/5/131
f 63/6/132 143/10/133 144/5/134
f 115/6/5 133/10/129 147/5/135
f 21/4/26 137/5/136 26/6/115
f 107/4/118 139/5/137 37/6/124
f 21/6/26 135/10/131 136/5/37
f 42/4/138 141/5/139 48/6/72
f 26/4/115 138/5/140 31/6/50
f 42/6/138 146/10/141 140/5/142
f 48/4/72 142/5/143 53/6/82
f 11/6/23 147/10/135 134/5/130
f 31/4/50 145/5/144 107/6/118
f 63/4/132 148/5/145 119/6/96
f 109/6/67 139/10/137 146/5/141
f 53/4/82 143/5/133 58/6/87
f 162/26/146 151/27/147 157/28/148
f 151/26/147 175/27/149 155/28/150
f 150/26/151 171/27/152 154/28/153
f 163/26/154 149/27/155 159/28/156
f 168/28/157 150/29/151 154/27/153
f 152/26/158 166/27/157 156/28/159
f 162/26/146 167/27/157 166/28/157
f 167/28/157 160/29/160 168/27/157
f 151/28/147 165/29/161 157/27/148
f 165/26/161 158/27/162 157/28/148
f 164/26/11 159/27/156 158/28/162
f 149/28/155 160/29/160 159/27/156
f 160/26/160 158/27/162 159/28/156
f 158/28/162 162/29/146 157/27/148
f 169/28/163 184/29/164 181/27/165
f 154/26/153 172/27/166 153/28/167
f 150/28/151 169/29/163 170/27/168
f 149/28/155 172/29/166 169/27/163
f 176/28/169 179/29/170 180/27/171
f 152/28/158 176/29/169 173/27/172
f 152/26/158 174/27/173 151/28/147
f 156/28/159 175/29/149 176/27/169
f 178/28/174 180/29/171 179/27/170
f 175/28/149 178/29/174 179/27/170
f 173/28/172 180/29/171 177/27/175
f 173/26/172 178/27/174 174/28/173
f 183/26/176 181/27/165 184/28/164
f 170/28/168 181/29/165 182/27/177
f 170/26/168 183/27/176 171/28/152
f 171/26/152 184/27/164 172/28/166
f 185/30/178 188/31/178 186/32/178
f 189/30/179 192/33/179 191/34/179
f 194/21/180 512/14/181 511/21/182
f 520/22/183 102/23/183 101/24/183
f 194/35/107 88/19/22 76/36/184
f 193/15/105 91/14/48 79/11/108
f 200/37/185 201/38/185 199/39/185
f 204/40/186 205/41/186 203/42/186
f 207/42/187 210/43/187 208/40/187
f 502/44/188 214/45/189 494/46/190
f 494/44/190 218/45/191 495/46/192
f 266/47/193 496/46/194 499/44/195
f 216/47/196 493/46/197 496/44/194
f 215/48/198 401/49/199 261/50/200
f 258/48/201 216/49/202 266/50/203
f 242/48/204 211/49/205 215/50/198
f 241/48/206 219/49/207 242/50/204
f 240/48/208 220/49/209 241/50/206
f 240/51/208 222/52/210 221/53/211
f 237/54/212 245/55/213 252/56/214
f 224/54/215 244/55/216 245/56/213
f 261/50/200 242/57/204 215/49/198
f 272/48/217 242/49/204 269/50/218
f 275/48/219 241/49/206 272/50/217
f 278/48/220 240/49/208 275/50/219
f 281/48/221 239/49/222 278/50/220
f 284/48/223 238/49/224 281/50/221
f 213/50/225 236/57/226 217/49/227
f 230/50/228 235/57/229 236/49/226
f 229/50/230 234/57/231 235/49/229
f 227/58/232 234/53/231 228/51/233
f 233/59/234 248/60/235 251/61/236
f 226/62/237 248/61/235 227/59/232
f 287/48/238 213/49/225 255/50/239
f 290/48/240 230/49/228 287/50/238
f 293/48/241 229/49/230 290/50/240
f 296/48/242 228/49/233 293/50/241
f 296/50/242 226/57/237 227/49/232
f 302/48/243 226/49/237 299/50/244
f 326/63/245 316/56/246 327/54/247
f 325/63/248 315/56/249 326/54/245
f 334/59/250 320/60/251 321/61/252
f 331/62/253 323/61/254 332/59/255
f 238/54/224 252/55/214 253/56/256
f 232/62/257 249/61/258 231/59/259
f 238/63/224 254/56/260 239/54/222
f 239/63/222 243/56/261 222/54/210
f 231/62/259 246/61/262 225/59/263
f 225/62/263 247/61/264 226/59/237
f 232/59/257 251/60/236 250/61/265
f 223/54/266 243/55/261 244/56/216
f 223/50/266 300/57/267 297/49/268
f 300/64/267 298/65/269 297/66/268
f 301/64/270 299/65/244 298/66/269
f 223/48/266 294/49/271 222/50/210
f 297/64/268 295/65/272 294/66/271
f 295/66/272 299/67/244 296/65/242
f 221/50/211 294/57/271 291/49/273
f 291/66/273 295/67/272 292/65/274
f 295/64/272 293/65/241 292/66/274
f 220/50/209 291/57/273 288/49/275
f 288/50/275 292/57/274 289/49/276
f 292/48/274 290/49/240 289/50/276
f 219/50/207 288/57/275 285/49/277
f 285/50/277 289/57/276 286/49/278
f 289/48/276 287/49/238 286/50/278
f 211/50/205 285/57/277 257/49/279
f 257/50/279 286/57/278 256/49/280
f 286/48/278 255/49/239 256/50/280
f 232/50/257 282/57/281 279/49/282
f 279/68/282 283/69/283 280/70/284
f 283/71/283 281/70/221 280/68/284
f 233/50/234 279/57/282 276/49/285
f 276/68/285 280/69/284 277/70/286
f 280/71/284 278/70/220 277/68/286
f 234/50/231 276/57/285 273/49/287
f 273/68/287 277/69/286 274/70/288
f 277/71/286 275/70/219 274/68/288
f 235/50/229 273/57/287 270/49/289
f 270/50/289 274/57/288 271/49/290
f 274/48/288 272/49/217 271/50/290
f 236/50/226 270/57/289 267/49/291
f 267/50/291 271/57/290 268/49/292
f 271/48/290 269/49/218 268/50/292
f 236/48/226 263/49/293 217/50/227
f 263/50/293 268/57/292 262/49/294
f 268/48/292 261/49/200 262/50/294
f 218/50/295 260/57/296 264/49/297
f 264/50/297 259/57/298 265/49/299
f 259/48/298 266/49/203 265/50/299
f 263/50/293 408/57/300 405/49/301
f 255/48/239 407/49/302 256/50/280
f 215/50/198 398/57/303 399/49/304
f 495/44/192 264/45/305 497/46/306
f 264/71/305 498/72/307 497/73/306
f 498/73/307 266/69/193 499/72/195
f 212/47/308 500/46/309 493/44/197
f 258/64/310 501/74/311 500/75/309
f 501/75/311 260/67/312 502/74/188
f 264/76/313 306/77/314 310/78/315
f 266/76/316 305/77/317 216/79/318
f 214/76/319 306/77/314 218/79/320
f 260/76/321 304/77/322 214/79/319
f 258/76/323 303/77/324 307/78/325
f 264/79/313 311/78/326 265/76/299
f 259/76/327 307/77/325 308/78/328
f 266/76/316 311/77/326 312/78/329
f 259/79/327 309/78/330 260/76/321
f 305/78/317 212/79/331 216/76/318
f 318/63/332 373/56/333 313/54/334
f 338/80/335 380/81/336 337/82/337
f 328/63/338 313/56/334 329/54/339
f 330/54/340 316/55/246 317/56/341
f 329/63/339 314/56/342 325/54/248
f 328/54/338 317/55/341 318/56/332
f 319/59/343 388/60/344 385/61/345
f 346/83/346 395/84/347 347/85/348
f 332/62/255 322/61/349 335/59/350
f 335/62/350 319/61/343 336/59/351
f 333/59/352 319/60/343 320/61/251
f 334/62/250 324/61/353 331/59/253
f 254/54/260 330/55/340 328/56/338
f 243/63/261 325/56/248 244/54/216
f 253/54/256 327/55/247 330/56/340
f 254/63/260 329/56/339 243/54/261
f 244/63/216 326/56/245 245/54/213
f 252/54/214 326/55/245 327/56/247
f 251/59/236 334/60/250 331/61/253
f 247/59/264 336/60/351 333/61/352
f 249/62/258 336/61/351 246/59/262
f 250/62/265 335/61/350 249/59/258
f 251/62/236 332/61/255 250/59/265
f 248/59/235 333/60/352 334/61/250
f 337/80/337 350/81/354 338/82/335
f 342/82/355 353/86/356 354/81/357
f 313/63/334 374/56/358 314/54/342
f 342/80/355 383/81/359 341/82/360
f 318/54/332 377/55/361 378/56/362
f 340/80/363 381/81/364 339/82/365
f 345/85/366 356/87/367 357/84/368
f 339/80/365 352/81/369 340/82/363
f 323/62/254 388/61/344 322/59/349
f 345/88/366 392/89/370 344/90/371
f 321/59/252 386/60/372 387/61/373
f 348/91/374 393/92/375 345/93/366
f 356/83/367 369/84/376 357/85/368
f 350/80/354 363/81/377 351/82/378
f 357/83/368 372/84/379 360/85/380
f 354/80/357 361/81/381 349/82/382
f 347/83/348 358/84/383 346/85/346
f 342/80/355 349/81/382 337/82/337
f 343/85/384 358/87/383 355/84/385
f 338/80/335 351/81/378 339/82/365
f 348/83/374 359/84/386 347/85/348
f 344/85/371 355/87/385 356/84/367
f 341/82/360 352/86/369 353/81/356
f 345/83/366 360/84/380 348/85/374
f 365/80/387 361/81/381 366/82/388
f 364/80/389 362/81/390 365/82/387
f 368/83/391 372/84/379 369/85/376
f 367/83/392 371/84/393 368/85/391
f 353/82/356 364/86/389 365/81/387
f 359/83/386 370/84/394 358/85/383
f 352/82/369 363/86/377 364/81/389
f 358/83/383 367/84/392 355/85/385
f 353/80/356 366/81/388 354/82/357
f 359/85/386 372/87/379 371/84/393
f 350/82/354 361/86/381 362/81/390
f 356/85/367 367/87/392 368/84/391
f 376/94/395 381/95/395 382/96/395
f 375/94/396 379/95/396 381/96/396
f 378/97/397 380/96/397 373/94/397
f 376/97/398 383/96/398 377/94/398
f 374/94/399 380/95/399 379/96/399
f 377/97/400 384/96/400 378/94/400
f 337/80/337 384/81/401 342/82/355
f 314/63/342 375/56/402 315/54/249
f 339/80/365 379/81/403 338/82/335
f 317/54/341 376/55/404 377/56/361
f 341/80/360 382/81/405 340/82/363
f 316/54/246 375/55/402 376/56/404
f 390/98/406 395/99/406 389/100/406
f 385/98/407 392/99/407 386/100/407
f 387/100/408 392/101/408 393/99/408
f 388/98/409 391/99/409 385/100/409
f 390/100/410 393/101/410 396/99/410
f 388/100/411 395/101/411 394/99/411
f 343/83/384 394/84/412 346/85/346
f 324/62/353 389/61/413 323/59/254
f 347/83/348 396/84/414 348/85/374
f 320/59/251 385/60/345 386/61/372
f 344/88/371 391/89/415 343/90/384
f 321/62/252 390/61/416 324/59/353
f 398/48/303 411/49/417 399/50/304
f 408/50/300 419/57/418 420/49/419
f 211/50/205 397/57/420 398/49/303
f 257/50/279 400/57/421 397/49/420
f 262/48/294 400/49/421 256/50/280
f 261/48/200 402/49/422 262/50/294
f 401/48/199 414/49/423 402/50/422
f 404/48/424 418/49/425 406/50/426
f 217/48/227 404/49/424 213/50/225
f 262/50/294 407/57/302 408/49/300
f 217/50/227 405/57/301 403/49/427
f 213/48/225 406/49/426 255/50/239
f 416/48/428 430/49/429 418/50/425
f 412/48/430 421/49/431 409/50/432
f 414/48/423 424/49/433 412/50/430
f 417/48/434 427/49/435 415/50/436
f 406/48/426 419/49/418 407/50/302
f 402/48/422 412/49/430 400/50/421
f 404/50/424 415/57/436 416/49/428
f 397/50/420 412/57/430 409/49/432
f 405/50/301 420/57/419 417/49/434
f 403/50/427 417/57/434 415/49/436
f 399/48/304 413/49/437 401/50/199
f 398/50/303 409/57/432 410/49/438
f 422/102/157 433/103/157 434/104/157
f 431/102/157 442/103/157 443/104/157
f 425/102/157 435/103/157 437/104/157
f 432/102/157 443/103/157 444/104/157
f 420/50/419 431/57/439 432/49/440
f 413/50/437 423/57/441 425/49/442
f 419/50/418 430/57/429 431/49/439
f 410/50/438 421/57/431 422/49/443
f 415/48/436 428/49/444 416/50/428
f 413/48/437 426/49/445 414/50/423
f 417/50/434 432/57/440 429/49/446
f 411/50/417 422/57/443 423/49/441
f 444/102/447 455/103/448 456/104/449
f 440/105/450 454/104/451 442/102/452
f 433/106/453 448/107/454 445/108/455
f 438/105/456 448/104/454 436/102/457
f 428/102/157 439/103/157 440/104/157
f 426/102/157 437/103/157 438/104/157
f 432/105/157 441/104/157 429/102/157
f 422/105/157 435/104/157 423/102/157
f 429/105/157 439/104/157 427/102/157
f 426/105/157 436/104/157 424/102/157
f 424/105/157 433/104/157 421/102/157
f 428/105/157 442/104/157 430/102/157
f 454/102/451 464/103/458 466/104/459
f 448/105/454 457/104/460 445/102/455
f 448/102/454 462/103/461 460/104/462
f 449/102/463 469/103/464 470/104/465
f 437/102/466 447/103/467 449/104/463
f 442/105/452 455/104/448 443/102/468
f 434/106/469 445/107/455 446/108/470
f 439/105/471 452/104/472 440/102/450
f 437/105/466 450/104/473 438/102/456
f 441/102/474 456/103/449 453/104/475
f 435/102/476 446/103/470 447/104/467
f 441/105/474 451/104/477 439/102/471
f 461/105/11 458/104/478 457/102/460
f 460/102/462 461/103/11 457/104/460
f 464/102/458 465/103/11 466/104/459
f 465/105/11 467/104/479 466/102/459
f 455/105/448 468/104/480 456/102/449
f 451/105/477 472/104/481 463/102/482
f 455/102/448 466/103/459 467/104/479
f 445/105/455 458/104/478 446/102/470
f 452/102/472 463/103/482 464/104/458
f 465/102/11 472/103/481 476/104/11
f 453/105/475 473/104/483 451/102/477
f 446/105/470 459/104/484 447/102/467
f 478/105/11 489/104/485 477/102/486
f 476/105/11 492/104/487 480/102/480
f 473/105/483 484/104/488 472/102/481
f 477/105/486 481/104/489 469/102/464
f 456/102/449 480/103/480 475/104/490
f 461/105/11 477/104/486 459/102/484
f 450/105/473 479/104/461 462/102/461
f 449/105/463 471/104/491 450/102/473
f 447/102/467 477/103/486 469/104/464
f 453/102/475 475/103/490 474/104/492
f 462/105/461 478/104/11 461/102/11
f 468/102/480 476/103/11 480/104/480
f 485/102/493 488/103/494 484/104/488
f 481/105/489 490/104/495 482/102/496
f 483/102/497 490/103/495 491/104/498
f 487/105/499 488/104/494 486/102/500
f 474/105/492 485/104/493 473/102/483
f 479/102/461 483/103/497 491/104/498
f 470/102/465 481/103/489 482/104/496
f 478/102/11 491/103/498 490/104/495
f 474/102/492 487/103/499 486/104/500
f 480/105/480 487/104/499 475/102/490
f 470/105/465 483/104/497 471/102/491
f 476/102/11 484/103/488 488/104/494
f 501/75/311 302/65/243 301/66/270
f 300/66/267 501/74/311 301/65/270
f 224/50/215 500/109/309 300/49/267
f 498/73/307 284/70/223 283/68/283
f 282/68/281 498/72/307 283/70/283
f 231/50/259 497/109/306 282/49/281
f 496/110/194 224/49/215 237/50/212
f 499/110/195 237/49/212 284/50/223
f 225/50/263 495/109/192 231/49/259
f 502/110/188 225/49/263 302/50/243
f 505/1/501 504/3/501 506/2/501
f 503/1/501 506/3/501 504/2/501
f 507/1/501 506/3/501 503/2/501
f 508/11/502 516/13/503 509/12/504
f 521/14/505 513/12/506 514/11/507
f 518/21/508 512/12/509 511/15/510
f 510/15/511 515/13/512 508/12/502
f 512/11/509 517/21/513 510/15/511
f 520/14/514 511/15/510 513/11/506
f 521/22/515 78/23/515 102/24/515
f 104/24/516 515/25/516 103/23/516
f 193/18/517 512/36/181 76/36/518
f 80/11/519 508/12/520 79/12/9
f 103/24/114 517/25/114 197/23/114
f 79/14/9 510/21/521 193/21/517
f 77/12/42 511/15/182 513/12/110
f 519/22/112 198/23/112 100/24/112
f 79/24/522 104/25/522 103/23/523
f 193/24/524 103/25/525 197/23/525
f 76/24/526 197/25/527 100/23/528
f 76/22/529 198/23/530 194/24/529
f 194/22/531 101/23/531 77/24/532
f 102/22/533 77/23/533 101/24/533
f 522/111/534 525/112/534 524/113/534
f 526/111/535 529/112/535 527/114/535
f 117/4/2 13/10/12 14/5/3
f 115/4/5 11/10/23 12/5/6
f 30/7/8 25/16/536 79/8/9
f 46/6/11 9/4/99 113/10/4
f 117/6/2 114/4/7 12/10/6
f 41/11/16 36/12/16 81/13/17
f 12/4/6 17/10/24 18/5/20
f 196/15/21 89/12/93 99/13/15
f 13/4/12 18/10/20 19/5/19
f 11/4/23 16/10/116 17/5/24
f 19/6/19 18/4/20 23/10/31
f 62/12/16 86/13/80 35/14/33
f 24/6/25 23/4/31 28/10/39
f 10/16/41 78/8/84 77/9/42
f 28/6/39 27/4/49 32/10/45
f 195/15/47 88/12/22 99/13/15
f 28/4/39 33/10/46 34/5/44
f 27/6/49 26/4/115 31/10/50
f 52/12/16 84/13/97 85/14/51
f 106/4/52 38/10/58 39/5/53
f 105/4/54 39/10/53 40/5/56
f 38/6/58 106/4/52 123/10/59
f 76/9/90 20/7/89 194/17/61
f 20/7/89 15/16/43 194/17/61
f 46/6/11 34/4/44 108/10/57
f 111/4/64 44/10/70 45/5/65
f 109/4/67 42/10/138 43/5/68
f 36/11/16 30/12/8 80/13/10
f 46/6/11 40/4/56 110/10/66
f 111/6/64 112/4/69 43/10/68
f 44/4/70 50/10/75 51/5/71
f 43/6/68 42/4/138 48/10/72
f 47/11/16 41/12/16 82/13/18
f 44/6/70 43/4/68 49/10/73
f 51/6/71 50/4/75 55/10/77
f 48/4/72 53/10/82 54/5/79
f 57/12/16 85/13/51 86/14/80
f 49/4/73 54/10/79 55/5/77
f 55/4/77 60/10/85 61/5/81
f 53/4/82 58/10/87 59/5/83
f 6/12/16 35/13/33 78/14/84
f 55/6/77 54/4/79 59/10/83
f 60/4/85 65/10/92 66/5/86
f 58/4/87 63/10/132 64/5/88
f 79/9/9 25/7/536 193/17/91
f 25/7/536 20/16/89 193/17/91
f 59/4/83 64/10/88 65/5/92
f 7/4/94 127/10/128 130/5/95
f 52/11/16 47/12/16 83/13/74
f 46/6/11 66/4/86 120/10/98
f 118/4/100 8/10/119 67/5/101
f 116/4/102 67/10/101 9/5/99
f 70/6/28 71/4/27 74/10/103
f 68/6/40 69/4/32 72/10/36
f 70/4/28 73/10/104 72/5/36
f 68/4/40 22/10/35 74/5/103
f 193/18/105 76/36/184 88/19/22
f 86/11/80 85/12/51 97/13/29
f 83/12/74 95/13/76 96/14/30
f 77/11/106 78/12/84 90/13/62
f 85/11/51 84/12/97 96/13/30
f 35/11/33 86/12/80 98/13/55
f 81/12/17 93/13/13 94/14/38
f 194/15/107 77/12/106 89/13/93
f 82/12/18 94/13/38 95/14/76
f 79/12/108 91/13/48 92/14/14
f 78/11/84 35/12/33 87/13/63
f 80/12/10 92/13/14 93/14/13
f 78/12/109 77/11/42 513/11/110
f 518/22/112 520/25/112 101/23/112
f 80/24/113 509/22/113 516/25/113
f 197/24/114 517/22/114 519/25/114
f 39/6/53 38/4/58 112/10/69
f 38/4/58 122/10/60 125/5/117
f 40/6/56 39/4/53 111/10/64
f 32/6/45 31/4/50 107/10/118
f 34/6/44 33/4/46 105/10/54
f 32/4/45 106/10/52 105/5/54
f 66/6/86 65/4/92 116/10/102
f 64/4/88 118/10/100 116/5/102
f 64/6/88 63/4/132 119/10/96
f 67/6/101 8/4/119 114/10/7
f 8/6/119 118/4/100 132/10/120
f 9/6/99 67/4/101 117/10/2
f 126/4/122 121/10/125 122/5/60
f 122/6/60 121/4/125 124/10/123
f 37/6/124 109/4/67 124/10/123
f 37/4/124 121/10/125 126/5/122
f 107/4/118 126/10/122 123/5/59
f 109/6/67 112/4/69 125/10/117
f 130/4/95 127/10/128 128/5/121
f 128/6/121 127/4/128 131/10/126
f 115/6/5 114/4/7 129/10/127
f 119/4/96 130/10/95 132/5/120
f 8/4/119 128/10/121 129/5/127
f 7/6/94 115/4/5 131/10/126
f 119/4/96 148/10/145 133/5/129
f 16/6/116 11/4/23 134/10/130
f 63/6/132 58/4/87 143/10/133
f 115/6/5 7/4/94 133/10/129
f 21/4/26 136/10/37 137/5/136
f 107/4/118 145/10/144 139/5/137
f 21/6/26 16/4/116 135/10/131
f 42/4/138 140/10/142 141/5/139
f 26/4/115 137/10/136 138/5/140
f 42/6/138 109/4/67 146/10/141
f 48/4/72 141/10/139 142/5/143
f 11/6/23 115/4/5 147/10/135
f 31/4/50 138/10/140 145/5/144
f 63/4/132 144/10/134 148/5/145
f 109/6/67 37/4/124 139/10/137
f 53/4/82 142/10/143 143/5/133
f 162/26/146 152/29/158 151/27/147
f 151/26/147 174/29/173 175/27/149
f 150/26/151 170/29/168 171/27/152
f 163/26/154 153/29/167 149/27/155
f 168/28/157 160/26/160 150/29/151
f 152/26/158 162/29/146 166/27/157
f 162/26/146 161/29/537 167/27/157
f 167/28/157 161/26/537 160/29/160
f 151/28/147 155/26/150 165/29/161
f 165/26/161 164/29/11 158/27/162
f 164/26/11 163/29/154 159/27/156
f 149/28/155 150/26/151 160/29/160
f 160/26/160 161/29/537 158/27/162
f 158/28/162 161/26/537 162/29/146
f 169/28/163 172/26/166 184/29/164
f 154/26/153 171/29/152 172/27/166
f 150/28/151 149/26/155 169/29/163
f 149/28/155 153/26/167 172/29/166
f 176/28/169 175/26/149 179/29/170
f 152/28/158 156/26/159 176/29/169
f 152/26/158 173/29/172 174/27/173
f 156/28/159 155/26/150 175/29/149
f 178/28/174 177/26/175 180/29/171
f 175/28/149 174/26/173 178/29/174
f 173/28/172 176/26/169 180/29/171
f 173/26/172 177/29/175 178/27/174
f 183/26/176 182/29/177 181/27/165
f 170/28/168 169/26/163 181/29/165
f 170/26/168 182/29/177 183/27/176
f 171/26/152 183/29/176 184/27/164
f 185/30/178 187/34/178 188/31/178
f 189/30/179 190/115/179 192/33/179
f 194/21/180 76/14/518 512/14/181
f 520/22/183 521/25/183 102/23/183
f 194/35/107 196/116/21 88/19/22
f 193/15/105 195/21/47 91/14/48
f 200/37/185 202/117/185 201/38/185
f 204/40/186 206/43/186 205/41/186
f 207/42/187 209/41/187 210/43/187
f 502/44/188 260/47/312 214/45/189
f 494/44/190 214/47/189 218/45/191
f 266/47/193 216/45/196 496/46/194
f 216/47/196 212/45/308 493/46/197
f 215/48/198 399/57/304 401/49/199
f 258/48/201 212/57/538 216/49/202
f 242/48/204 219/57/207 211/49/205
f 241/48/206 220/57/209 219/49/207
f 240/48/208 221/57/211 220/49/209
f 240/51/208 239/58/222 222/52/210
f 237/54/212 224/63/215 245/55/213
f 224/54/215 223/63/266 244/55/216
f 261/50/200 269/48/218 242/57/204
f 272/48/217 241/57/206 242/49/204
f 275/48/219 240/57/208 241/49/206
f 278/48/220 239/57/222 240/49/208
f 281/48/221 238/57/224 239/49/222
f 284/48/223 237/57/212 238/49/224
f 213/50/225 230/48/228 236/57/226
f 230/50/228 229/48/230 235/57/229
f 229/50/230 228/48/233 234/57/231
f 227/58/232 233/52/234 234/53/231
f 233/59/234 227/62/232 248/60/235
f 226/62/237 247/60/264 248/61/235
f 287/48/238 230/57/228 213/49/225
f 290/48/240 229/57/230 230/49/228
f 293/48/241 228/57/233 229/49/230
f 296/48/242 227/57/232 228/49/233
f 296/50/242 299/48/244 226/57/237
f 302/48/243 225/57/263 226/49/237
f 326/63/245 315/55/249 316/56/246
f 325/63/248 314/55/342 315/56/249
f 334/59/250 333/62/352 320/60/251
f 331/62/253 324/60/353 323/61/254
f 238/54/224 237/63/212 252/55/214
f 232/62/257 250/60/265 249/61/258
f 238/63/224 253/55/256 254/56/260
f 239/63/222 254/55/260 243/56/261
f 231/62/259 249/60/258 246/61/262
f 225/62/263 246/60/262 247/61/264
f 232/59/257 233/62/234 251/60/236
f 223/54/266 222/63/210 243/55/261
f 223/50/266 224/48/215 300/57/267
f 300/64/267 301/67/270 298/65/269
f 301/64/270 302/67/243 299/65/244
f 223/48/266 297/57/268 294/49/271
f 297/64/268 298/67/269 295/65/272
f 295/66/272 298/64/269 299/67/244
f 221/50/211 222/48/210 294/57/271
f 291/66/273 294/64/271 295/67/272
f 295/64/272 296/67/242 293/65/241
f 220/50/209 221/48/211 291/57/273
f 288/50/275 291/48/273 292/57/274
f 292/48/274 293/57/241 290/49/240
f 219/50/207 220/48/209 288/57/275
f 285/50/277 288/48/275 289/57/276
f 289/48/276 290/57/240 287/49/238
f 211/50/205 219/48/207 285/57/277
f 257/50/279 285/48/277 286/57/278
f 286/48/278 287/57/238 255/49/239
f 232/50/257 231/48/259 282/57/281
f 279/68/282 282/71/281 283/69/283
f 283/71/283 284/69/223 281/70/221
f 233/50/234 232/48/257 279/57/282
f 276/68/285 279/71/282 280/69/284
f 280/71/284 281/69/221 278/70/220
f 234/50/231 233/48/234 276/57/285
f 273/68/287 276/71/285 277/69/286
f 277/71/286 278/69/220 275/70/219
f 235/50/229 234/48/231 273/57/287
f 270/50/289 273/48/287 274/57/288
f 274/48/288 275/57/219 272/49/217
f 236/50/226 235/48/229 270/57/289
f 267/50/291 270/48/289 271/57/290
f 271/48/290 272/57/217 269/49/218
f 236/48/226 267/57/291 263/49/293
f 263/50/293 267/48/291 268/57/292
f 268/48/292 269/57/218 261/49/200
f 218/50/295 214/48/539 260/57/296
f 264/50/297 260/48/296 259/57/298
f 259/48/298 258/57/201 266/49/203
f 263/50/293 262/48/294 408/57/300
f 255/48/239 406/57/426 407/49/302
f 215/50/198 211/48/205 398/57/303
f 495/44/192 218/47/191 264/45/305
f 264/71/305 265/69/540 498/72/307
f 498/73/307 265/71/540 266/69/193
f 212/47/308 258/45/310 500/46/309
f 258/64/310 259/67/541 501/74/311
f 501/75/311 259/64/541 260/67/312
f 264/76/313 218/79/320 306/77/314
f 266/76/316 312/78/329 305/77/317
f 214/76/319 304/78/322 306/77/314
f 260/76/321 309/78/330 304/77/322
f 258/76/323 212/79/331 303/77/324
f 264/79/313 310/77/315 311/78/326
f 259/76/327 258/79/323 307/77/325
f 266/76/316 265/79/299 311/77/326
f 259/79/327 308/77/328 309/78/330
f 305/78/317 303/77/324 212/79/331
f 318/63/332 378/55/362 373/56/333
f 338/80/335 379/86/403 380/81/336
f 328/63/338 318/55/332 313/56/334
f 330/54/340 327/63/247 316/55/246
f 329/63/339 313/55/334 314/56/342
f 328/54/338 330/63/340 317/55/341
f 319/59/343 322/62/349 388/60/344
f 346/83/346 394/87/412 395/84/347
f 332/62/255 323/60/254 322/61/349
f 335/62/350 322/60/349 319/61/343
f 333/59/352 336/62/351 319/60/343
f 334/62/250 321/60/252 324/61/353
f 254/54/260 253/63/256 330/55/340
f 243/63/261 329/55/339 325/56/248
f 253/54/256 252/63/214 327/55/247
f 254/63/260 328/55/338 329/56/339
f 244/63/216 325/55/248 326/56/245
f 252/54/214 245/63/213 326/55/245
f 251/59/236 248/62/235 334/60/250
f 247/59/264 246/62/262 336/60/351
f 249/62/258 335/60/350 336/61/351
f 250/62/265 332/60/255 335/61/350
f 251/62/236 331/60/253 332/61/255
f 248/59/235 247/62/264 333/60/352
f 337/80/337 349/86/382 350/81/354
f 342/82/355 341/80/360 353/86/356
f 313/63/334 373/55/333 374/56/358
f 342/80/355 384/86/401 383/81/359
f 318/54/332 317/63/341 377/55/361
f 340/80/363 382/86/405 381/81/364
f 345/85/366 344/83/371 356/87/367
f 339/80/365 351/86/378 352/81/369
f 323/62/254 389/60/413 388/61/344
f 345/88/366 393/118/375 392/89/370
f 321/59/252 320/62/251 386/60/372
f 348/91/374 396/119/414 393/92/375
f 356/83/367 368/87/391 369/84/376
f 350/80/354 362/86/390 363/81/377
f 357/83/368 369/87/376 372/84/379
f 354/80/357 366/86/388 361/81/381
f 347/83/348 359/87/386 358/84/383
f 342/80/355 354/86/357 349/81/382
f 343/85/384 346/83/346 358/87/383
f 338/80/335 350/86/354 351/81/378
f 348/83/374 360/87/380 359/84/386
f 344/85/371 343/83/384 355/87/385
f 341/82/360 340/80/363 352/86/369
f 345/83/366 357/87/368 360/84/380
f 365/80/387 362/86/390 361/81/381
f 364/80/389 363/86/377 362/81/390
f 368/83/391 371/87/393 372/84/379
f 367/83/392 370/87/394 371/84/393
f 353/82/356 352/80/369 364/86/389
f 359/83/386 371/87/393 370/84/394
f 352/82/369 351/80/378 363/86/377
f 358/83/383 370/87/394 367/84/392
f 353/80/356 365/86/387 366/81/388
f 359/85/386 360/83/380 372/87/379
f 350/82/354 349/80/382 361/86/381
f 356/85/367 355/83/385 367/87/392
f 376/94/395 375/97/395 381/95/395
f 375/94/396 374/97/396 379/95/396
f 378/97/397 384/95/397 380/96/397
f 376/97/398 382/95/398 383/96/398
f 374/94/399 373/97/399 380/95/399
f 377/97/400 383/95/400 384/96/400
f 337/80/337 380/86/336 384/81/401
f 314/63/342 374/55/358 375/56/402
f 339/80/365 381/86/364 379/81/403
f 317/54/341 316/63/246 376/55/404
f 341/80/360 383/86/359 382/81/405
f 316/54/246 315/63/249 375/55/402
f 390/98/406 396/101/406 395/99/406
f 385/98/407 391/101/407 392/99/407
f 387/100/408 386/98/408 392/101/408
f 388/98/409 394/101/409 391/99/409
f 390/100/410 387/98/410 393/101/410
f 388/100/411 389/98/411 395/101/411
f 343/83/384 391/87/415 394/84/412
f 324/62/353 390/60/416 389/61/413
f 347/83/348 395/87/347 396/84/414
f 320/59/251 319/62/343 385/60/345
f 344/88/371 392/118/370 391/89/415
f 321/62/252 387/60/373 390/61/416
f 398/48/303 410/57/438 411/49/417
f 408/50/300 407/48/302 419/57/418
f 211/50/205 257/48/279 397/57/420
f 257/50/279 256/48/280 400/57/421
f 262/48/294 402/57/422 400/49/421
f 261/48/200 401/57/199 402/49/422
f 401/48/199 413/57/437 414/49/423
f 404/48/424 416/57/428 418/49/425
f 217/48/227 403/57/427 404/49/424
f 262/50/294 256/48/280 407/57/302
f 217/50/227 263/48/293 405/57/301
f 213/48/225 404/57/424 406/49/426
f 416/48/428 428/57/444 430/49/429
f 412/48/430 424/57/433 421/49/431
f 414/48/423 426/57/445 424/49/433
f 417/48/434 429/57/446 427/49/435
f 406/48/426 418/57/425 419/49/418
f 402/48/422 414/57/423 412/49/430
f 404/50/424 403/48/427 415/57/436
f 397/50/420 400/48/421 412/57/430
f 405/50/301 408/48/300 420/57/419
f 403/50/427 405/48/301 417/57/434
f 399/48/304 411/57/417 413/49/437
f 398/50/303 397/48/420 409/57/432
f 422/102/157 421/105/157 433/103/157
f 431/102/157 430/105/157 442/103/157
f 425/102/157 423/105/157 435/103/157
f 432/102/157 431/105/157 443/103/157
f 420/50/419 419/48/418 431/57/439
f 413/50/437 411/48/417 423/57/441
f 419/50/418 418/48/425 430/57/429
f 410/50/438 409/48/432 421/57/431
f 415/48/436 427/57/435 428/49/444
f 413/48/437 425/57/442 426/49/445
f 417/50/434 420/48/419 432/57/440
f 411/50/417 410/48/438 422/57/443
f 444/102/447 443/105/468 455/103/448
f 440/105/450 452/103/472 454/104/451
f 433/106/453 436/120/457 448/107/454
f 438/105/456 450/103/473 448/104/454
f 428/102/157 427/105/157 439/103/157
f 426/102/157 425/105/157 437/103/157
f 432/105/157 444/103/157 441/104/157
f 422/105/157 434/103/157 435/104/157
f 429/105/157 441/103/157 439/104/157
f 426/105/157 438/103/157 436/104/157
f 424/105/157 436/103/157 433/104/157
f 428/105/157 440/103/157 442/104/157
f 454/102/451 452/105/472 464/103/458
f 448/105/454 460/103/462 457/104/460
f 448/102/454 450/105/473 462/103/461
f 449/102/463 447/105/467 469/103/464
f 437/102/466 435/105/476 447/103/467
f 442/105/452 454/103/451 455/104/448
f 434/106/469 433/120/453 445/107/455
f 439/105/471 451/103/477 452/104/472
f 437/105/466 449/103/463 450/104/473
f 441/102/474 444/105/447 456/103/449
f 435/102/476 434/105/469 446/103/470
f 441/105/474 453/103/475 451/104/477
f 461/105/11 459/103/484 458/104/478
f 460/102/462 462/105/461 461/103/11
f 464/102/458 463/105/482 465/103/11
f 465/105/11 468/103/480 467/104/479
f 455/105/448 467/103/479 468/104/480
f 451/105/477 473/103/483 472/104/481
f 455/102/448 454/105/451 466/103/459
f 445/105/455 457/103/460 458/104/478
f 452/102/472 451/105/477 463/103/482
f 465/102/11 463/105/482 472/103/481
f 453/105/475 474/103/492 473/104/483
f 446/105/470 458/103/478 459/104/484
f 478/105/11 490/103/495 489/104/485
f 476/105/11 488/103/494 492/104/487
f 473/105/483 485/103/493 484/104/488
f 477/105/486 489/103/485 481/104/489
f 456/102/449 468/105/480 480/103/480
f 461/105/11 478/103/11 477/104/486
f 450/105/473 471/103/491 479/104/461
f 449/105/463 470/103/465 471/104/491
f 447/102/467 459/105/484 477/103/486
f 453/102/475 456/105/449 475/103/490
f 462/105/461 479/103/461 478/104/11
f 468/102/480 465/105/11 476/103/11
f 485/102/493 486/105/500 488/103/494
f 481/105/489 489/103/485 490/104/495
f 483/102/497 482/105/496 490/103/495
f 487/105/499 492/103/487 488/104/494
f 474/105/492 486/103/500 485/104/493
f 479/102/461 471/105/491 483/103/497
f 470/102/465 469/105/464 481/103/489
f 478/102/11 479/105/461 491/103/498
f 474/102/492 475/105/490 487/103/499
f 480/105/480 492/103/487 487/104/499
f 470/105/465 482/103/496 483/104/497
f 476/102/11 472/105/481 484/103/488
f 501/75/311 502/74/188 302/65/243
f 300/66/267 500/75/309 501/74/311
f 224/50/215 493/110/197 500/109/309
f 498/73/307 499/72/195 284/70/223
f 282/68/281 497/73/306 498/72/307
f 231/50/259 495/110/192 497/109/306
f 496/110/194 493/109/197 224/49/215
f 499/110/195 496/109/194 237/49/212
f 225/50/263 494/110/190 495/109/192
f 502/110/188 494/109/190 225/49/263
f 508/11/502 515/14/512 516/13/503
f 521/14/505 520/13/514 513/12/506
f 518/21/508 519/13/542 512/12/509
f 510/15/511 517/21/513 515/13/512
f 512/11/509 519/14/542 517/21/513
f 520/14/514 518/21/508 511/15/510
f 521/22/515 514/25/515 78/23/515
f 104/24/516 516/22/516 515/25/516
f 193/18/517 510/18/521 512/36/181
f 80/11/519 509/11/543 508/12/520
f 103/24/114 515/22/114 517/25/114
f 79/14/9 508/14/520 510/21/521
f 77/12/42 194/15/180 511/15/182
f 519/22/112 518/25/112 198/23/112
f 79/24/522 80/22/522 104/25/522
f 193/24/524 79/22/524 103/25/525
f 76/24/526 193/22/526 197/25/527
f 76/22/529 100/25/530 198/23/530
f 194/22/531 198/25/531 101/23/531
f 102/22/533 78/25/533 77/23/533
f 522/111/534 523/114/534 525/112/534
f 526/111/535 528/113/535 529/112/535
q 1/1/1 2/2/2 3/3/3